<svg width="23" height="23" viewBox="0 0 23 23" fill="none" xmlns="http://www.w3.org/2000/svg">
<path d="M11.0017 3.35321C11.0422 3.25434 11.1112 3.16976 11.2 3.11023C11.2887 3.05071 11.3931 3.01892 11.5 3.01892C11.6069 3.01892 11.7113 3.05071 11.8 3.11023C11.8888 3.16976 11.9578 3.25434 11.9983 3.35321L14.0348 8.25125C14.0729 8.3429 14.1356 8.42226 14.2159 8.48059C14.2962 8.53893 14.3911 8.57397 14.49 8.58188L19.7781 9.00546C20.2563 9.04379 20.4499 9.64084 20.0857 9.95229L16.0569 13.4042C15.9816 13.4686 15.9255 13.5525 15.8947 13.6466C15.864 13.7408 15.8597 13.8416 15.8825 13.938L17.1139 19.0986C17.1387 19.2022 17.1322 19.3107 17.0953 19.4106C17.0584 19.5104 16.9927 19.5971 16.9066 19.6596C16.8204 19.7222 16.7177 19.7578 16.6113 19.762C16.5049 19.7662 16.3997 19.7388 16.3089 19.6832L11.7808 16.9184C11.6962 16.8669 11.5991 16.8396 11.5 16.8396C11.4009 16.8396 11.3038 16.8669 11.2192 16.9184L6.69108 19.6842C6.60029 19.7397 6.49506 19.7672 6.38869 19.763C6.28232 19.7588 6.17957 19.7232 6.09344 19.6606C6.0073 19.5981 5.94163 19.5114 5.90473 19.4115C5.86782 19.3117 5.86133 19.2031 5.88608 19.0996L7.11754 13.938C7.14038 13.8416 7.13618 13.7408 7.10541 13.6466C7.07464 13.5524 7.01848 13.4685 6.94313 13.4042L2.91429 9.95229C2.83361 9.88292 2.77525 9.79124 2.74654 9.68879C2.71782 9.58633 2.72005 9.47767 2.75292 9.37648C2.7858 9.27528 2.84787 9.18606 2.93132 9.12005C3.01477 9.05403 3.11587 9.01417 3.22192 9.00546L8.51 8.58188C8.60895 8.57397 8.7038 8.53893 8.78411 8.48059C8.86442 8.42226 8.92709 8.3429 8.96521 8.25125L11.0017 3.35321Z" fill="#F8A635" stroke="#F8A635" stroke-width="3" stroke-linecap="round" stroke-linejoin="round"/>
</svg>
