<svg width="1665" height="629" viewBox="0 0 1665 629" fill="none" xmlns="http://www.w3.org/2000/svg">
<mask id="mask0_239_102" style="mask-type:alpha" maskUnits="userSpaceOnUse" x="0" y="0" width="1665" height="629">
<rect width="1665" height="629" rx="50" fill="#FEBD2F"/>
</mask>
<g mask="url(#mask0_239_102)">
<rect y="-64.4868" width="1665" height="773.162" rx="50" fill="#FEBD2F"/>
<path fill-rule="evenodd" clip-rule="evenodd" d="M320.83 561.137C262.94 520.195 230.225 497.377 158.266 474.518C19.183 430.339 -158.286 483.148 -86.2693 623.421C-48.2279 697.512 15.5912 742.332 85.6541 796.652C122.601 825.301 211.219 869.836 252.875 882.59C302.499 897.786 346.272 911.292 391.283 903.284C576.589 870.308 462.076 652.903 320.83 561.137Z" fill="#F8A635"/>
<path fill-rule="evenodd" clip-rule="evenodd" d="M1387.76 -240.111C1382.35 -240.099 1363.74 -211.503 1357.62 -197.912C1346.81 -173.891 1342.88 -159.564 1335.13 -140.43C1317.26 -96.3089 1307.2 -48.3951 1294.43 -2.36714C1292.3 5.32862 1280.42 36.4812 1284.95 43.4294C1294.19 57.6278 1324.28 66.5501 1340.93 73.6886C1394.59 96.7087 1452.16 117.116 1508.62 133.445C1542.74 143.314 1576.45 157.378 1611.05 164.481C1624.77 167.295 1641.48 170.534 1653.6 164.828C1659.53 162.038 1663.93 145.497 1666.04 140.286C1677.09 113.004 1688.56 85.6566 1702.18 59.2909C1719.55 25.647 1731.17 -10.8762 1745.74 -45.5838C1751.97 -60.4118 1764.53 -84.6219 1760.35 -101.152C1758.84 -107.108 1748.4 -110.112 1743.35 -112.4C1718.91 -123.481 1661.2 -146.262 1635.71 -155.386C1560.08 -182.451 1516.1 -196.852 1441.83 -226.341C1427.92 -231.865 1402.08 -240.139 1387.76 -240.111Z" fill="#F8A635"/>
<path fill-rule="evenodd" clip-rule="evenodd" d="M1490.83 618.681C1489.86 619.79 1492.69 629.998 1494.52 634.292C1497.76 641.879 1500.15 645.889 1502.89 651.757C1509.21 665.288 1517.74 678.068 1525.39 690.98C1526.67 693.139 1531.26 702.54 1533.58 703.168C1538.31 704.453 1545.65 700.29 1550.19 698.48C1564.82 692.646 1579.59 685.428 1593.27 677.526C1601.55 672.75 1610.65 668.996 1618.41 663.503C1621.49 661.324 1625.2 658.629 1626.15 654.871C1626.61 653.034 1623.83 648.432 1623.08 646.834C1619.18 638.467 1615.34 630 1612.09 621.314C1607.95 610.23 1602.15 599.678 1597.28 588.93C1595.19 584.338 1592.22 576.35 1587.9 573.506C1586.34 572.482 1583.81 573.948 1582.41 574.469C1575.62 576.993 1560.31 583.708 1553.75 586.884C1534.3 596.309 1523.27 602.09 1503.54 610.693C1499.84 612.305 1493.4 615.743 1490.83 618.681Z" fill="#F8A635"/>
<path fill-rule="evenodd" clip-rule="evenodd" d="M1621.74 598.311C1621.42 598.677 1622.36 602.043 1622.96 603.459C1624.03 605.961 1624.82 607.284 1625.72 609.219C1627.8 613.681 1630.62 617.895 1633.14 622.153C1633.56 622.865 1635.08 625.965 1635.84 626.172C1637.4 626.596 1639.82 625.223 1641.32 624.626C1646.14 622.703 1651.01 620.322 1655.53 617.716C1658.26 616.141 1661.26 614.904 1663.82 613.092C1664.83 612.373 1666.05 611.485 1666.37 610.246C1666.52 609.64 1665.6 608.122 1665.36 607.595C1664.07 604.836 1662.8 602.044 1661.73 599.179C1660.37 595.524 1658.45 592.045 1656.85 588.5C1656.16 586.986 1655.18 584.352 1653.75 583.414C1653.24 583.076 1652.41 583.56 1651.94 583.732C1649.7 584.564 1644.66 586.778 1642.49 587.826C1636.08 590.934 1632.44 592.84 1625.93 595.677C1624.71 596.209 1622.59 597.342 1621.74 598.311Z" fill="#F8A635"/>
<path fill-rule="evenodd" clip-rule="evenodd" d="M512.37 209.986C513.168 210.056 516.742 205.543 518.038 203.361C520.329 199.506 521.323 197.172 523.021 194.09C526.935 186.981 529.807 179.137 533.023 171.642C533.561 170.389 536.215 165.36 535.749 164.143C534.796 161.654 530.615 159.766 528.367 158.355C521.117 153.803 513.215 149.635 505.359 146.161C500.611 144.061 496.045 141.268 491.147 139.622C489.204 138.97 486.833 138.207 484.88 138.995C483.925 139.381 482.796 142.076 482.334 142.916C479.913 147.312 477.429 151.712 474.657 155.921C471.12 161.291 468.347 167.218 465.192 172.803C463.844 175.189 461.291 179.053 461.428 181.862C461.478 182.874 462.932 183.513 463.61 183.962C466.895 186.134 474.748 190.7 478.245 192.56C488.618 198.079 494.69 201.065 504.791 206.969C506.684 208.075 510.256 209.799 512.37 209.986Z" fill="#F8A635"/>
<path fill-rule="evenodd" clip-rule="evenodd" d="M461.467 159.057C461.73 159.08 462.908 157.592 463.336 156.872C464.091 155.601 464.419 154.831 464.979 153.815C466.27 151.471 467.217 148.884 468.277 146.412C468.455 145.999 469.33 144.341 469.176 143.939C468.862 143.119 467.483 142.496 466.742 142.031C464.351 140.53 461.745 139.155 459.155 138.01C457.589 137.317 456.083 136.396 454.468 135.853C453.827 135.638 453.045 135.387 452.401 135.647C452.086 135.774 451.714 136.663 451.562 136.94C450.764 138.389 449.944 139.84 449.03 141.228C447.864 142.999 446.949 144.954 445.909 146.795C445.465 147.582 444.622 148.856 444.668 149.782C444.684 150.116 445.164 150.327 445.387 150.475C446.471 151.191 449.06 152.697 450.213 153.311C453.634 155.13 455.636 156.115 458.967 158.062C459.592 158.427 460.77 158.995 461.467 159.057Z" fill="#F8A635"/>
<path fill-rule="evenodd" clip-rule="evenodd" d="M516.971 145.328C517.234 145.352 518.413 143.863 518.84 143.144C519.596 141.873 519.924 141.103 520.483 140.086C521.774 137.742 522.721 135.155 523.782 132.684C523.959 132.271 524.834 130.612 524.681 130.211C524.367 129.39 522.988 128.768 522.246 128.302C519.856 126.801 517.25 125.427 514.659 124.281C513.094 123.589 511.588 122.668 509.972 122.125C509.332 121.91 508.55 121.658 507.906 121.918C507.591 122.045 507.219 122.934 507.066 123.211C506.268 124.661 505.449 126.112 504.535 127.5C503.368 129.271 502.454 131.225 501.414 133.067C500.969 133.854 500.127 135.128 500.172 136.054C500.189 136.388 500.668 136.599 500.892 136.747C501.975 137.463 504.565 138.969 505.718 139.582C509.139 141.402 511.141 142.387 514.472 144.334C515.096 144.698 516.274 145.267 516.971 145.328Z" fill="#F8A635"/>
<path d="M1121.25 365.939C1122.69 358.085 1127.56 343.493 1129.97 336.437C1131.83 330.999 1120.2 327.946 1114.76 326.832C1112.97 326.465 1111.19 326.096 1109.42 325.66C1096.23 322.416 1081.66 320.823 1074 320.195C1071.22 320.098 1069.04 317.717 1069.14 314.883C1069.24 312.049 1071.57 309.827 1074.34 309.925C1084.39 309.817 1105.68 310.205 1121.88 314.155C1131.44 316.488 1139.18 320.506 1143.36 325.386C1145.61 328.03 1146.69 331.614 1146.66 335.991C1146.6 342.57 1142.83 352.337 1139.91 362.152C1138.88 365.628 1137.93 369.1 1137.62 372.42C1137.39 374.956 1137.37 377.386 1138.51 379.439C1141.11 384.19 1145.83 385.961 1151.14 386.96C1160.61 388.741 1171.82 388.117 1181.73 389.11C1191.12 390.05 1199.48 392.432 1205.4 398.02C1211.1 403.202 1212.39 409.191 1211.41 415.834C1210.52 421.831 1207.06 428.675 1203.94 435.958C1201.12 442.553 1198.33 449.693 1202.03 457.001C1204.89 462.861 1209.65 465.72 1215.08 467.444C1224.73 470.506 1236.3 470.394 1246.79 471.882C1256.26 473.224 1264.94 475.804 1271.59 481.267C1274.77 483.877 1276.75 488.567 1276.35 495.326C1275.95 502.023 1272.94 512.405 1275.47 522.485C1276.8 527.779 1279.94 532.916 1286.34 537.154C1290.01 539.552 1291.08 544.541 1288.73 548.287C1286.39 552.033 1281.5 553.128 1277.83 550.73C1267.24 543.893 1262.22 535.331 1259.93 526.66C1257.19 516.303 1258.78 505.621 1259.65 497.615C1260.63 488.564 1246.38 488.91 1239.31 488.228C1229.35 487.269 1218.96 486.775 1210.05 483.93C1200.28 480.811 1192.1 475.131 1187.05 464.547C1184.52 459.083 1183.67 453.736 1184.03 448.506C1184.77 437.697 1191.08 427.49 1194.95 418.559C1196.52 414.941 1198.38 411.718 1195.58 409.038C1190.01 403.968 1181.12 404.082 1172 404.02C1160.69 403.943 1148.96 404.245 1139.77 400.933C1133.21 398.57 1127.82 394.493 1124.01 388.052C1120.33 381.769 1119.76 374.051 1121.25 365.939Z" fill="#FECD62"/>
<path d="M204.175 315.02V317.031C204.176 317.406 204.059 317.772 203.839 318.076C203.62 318.38 203.309 318.607 202.953 318.723V319.461C202.953 319.694 202.907 319.924 202.818 320.139C202.729 320.354 202.599 320.549 202.434 320.713C202.27 320.878 202.075 321.008 201.86 321.097C201.645 321.186 201.415 321.232 201.182 321.232H185.889C185.656 321.232 185.426 321.186 185.211 321.097C184.996 321.008 184.801 320.878 184.637 320.713C184.473 320.549 184.342 320.354 184.253 320.139C184.164 319.924 184.118 319.694 184.118 319.461V318.723C183.761 318.608 183.449 318.382 183.229 318.078C183.008 317.773 182.891 317.407 182.893 317.031V315.02C182.893 314.788 182.939 314.557 183.028 314.343C183.117 314.128 183.247 313.933 183.412 313.768C183.576 313.604 183.771 313.473 183.986 313.385C184.201 313.296 184.431 313.25 184.663 313.25H202.404C202.637 313.249 202.867 313.295 203.082 313.384C203.297 313.472 203.493 313.603 203.657 313.767C203.822 313.932 203.952 314.127 204.041 314.342C204.13 314.557 204.175 314.788 204.175 315.02Z" fill="#FEBD2F" stroke="#070707" stroke-width="4" stroke-linecap="round" stroke-linejoin="round"/>
<path d="M184.041 318.266H203.031C205.938 318.266 208.727 319.422 210.783 321.478C212.84 323.534 213.995 326.323 213.995 329.231V369.513C213.99 370.899 213.436 372.228 212.454 373.207C211.472 374.186 210.142 374.736 208.755 374.736H178.316C176.927 374.736 175.594 374.184 174.611 373.201C173.628 372.218 173.076 370.885 173.076 369.496V329.214C173.081 326.309 174.238 323.524 176.294 321.472C178.349 319.419 181.136 318.266 184.041 318.266Z" fill="#FEBD2F" stroke="#070707" stroke-width="4" stroke-linecap="round" stroke-linejoin="round"/>
<path d="M211.03 351.071V366.713C211.03 368.067 210.492 369.365 209.534 370.323C208.577 371.28 207.279 371.818 205.925 371.818H181.136C179.783 371.817 178.485 371.279 177.528 370.322C176.571 369.365 176.032 368.067 176.032 366.713V351.071C176.032 349.524 183.868 346.67 193.536 346.67C203.203 346.67 211.03 349.524 211.03 351.071Z" fill="#EFAF00" stroke="black" stroke-width="4" stroke-linecap="round" stroke-linejoin="round"/>
<path d="M254.944 315.02V317.031C254.945 317.406 254.828 317.773 254.607 318.077C254.387 318.381 254.076 318.608 253.718 318.723V319.461C253.718 319.694 253.672 319.924 253.584 320.139C253.495 320.354 253.364 320.549 253.2 320.713C253.035 320.878 252.84 321.008 252.625 321.097C252.411 321.186 252.18 321.232 251.948 321.232H236.658C236.425 321.232 236.195 321.187 235.98 321.098C235.765 321.009 235.569 320.879 235.405 320.714C235.24 320.55 235.11 320.354 235.021 320.139C234.932 319.924 234.887 319.694 234.887 319.461V318.723C234.529 318.608 234.217 318.382 233.996 318.078C233.775 317.774 233.657 317.407 233.659 317.031V315.02C233.659 314.788 233.704 314.557 233.793 314.343C233.882 314.128 234.013 313.933 234.177 313.768C234.341 313.604 234.537 313.473 234.751 313.385C234.966 313.296 235.196 313.25 235.429 313.25H253.173C253.406 313.25 253.636 313.296 253.851 313.385C254.066 313.473 254.261 313.604 254.425 313.768C254.59 313.933 254.72 314.128 254.809 314.343C254.898 314.557 254.944 314.788 254.944 315.02Z" fill="#FEBD2F" stroke="#070707" stroke-width="4" stroke-linecap="round" stroke-linejoin="round"/>
<path d="M234.806 318.266H253.796C256.704 318.266 259.493 319.422 261.549 321.478C263.605 323.534 264.76 326.323 264.76 329.231V369.513C264.756 370.899 264.202 372.228 263.22 373.207C262.237 374.186 260.907 374.736 259.52 374.736H229.082C227.692 374.736 226.359 374.184 225.377 373.201C224.394 372.218 223.842 370.885 223.842 369.496V329.214C223.846 326.309 225.003 323.524 227.059 321.472C229.115 319.419 231.901 318.266 234.806 318.266Z" fill="#FEBD2F" stroke="#070707" stroke-width="4" stroke-linecap="round" stroke-linejoin="round"/>
<path d="M261.805 349.23V364.953C261.805 368.741 259.517 371.818 256.7 371.818H231.905C229.085 371.818 226.8 368.741 226.8 364.953V346.572C226.8 342.724 234.183 337.165 247.811 340.381C259.324 343.099 261.805 349.23 261.805 349.23Z" fill="#E57B07" stroke="#070707" stroke-width="4" stroke-linecap="round" stroke-linejoin="round"/>
<path d="M289.6 351.575H295.148C296.051 351.575 296.946 351.753 297.78 352.099C298.615 352.445 299.373 352.951 300.012 353.59C300.65 354.229 301.157 354.987 301.503 355.821C301.848 356.656 302.026 357.55 302.026 358.454V368.27C302.026 369.707 301.456 371.084 300.44 372.1C299.424 373.116 298.047 373.686 296.61 373.686H288.131C286.694 373.686 285.317 373.116 284.301 372.1C283.285 371.084 282.715 369.707 282.715 368.27V358.454C282.715 357.55 282.893 356.655 283.239 355.82C283.585 354.985 284.092 354.226 284.732 353.588C285.371 352.949 286.13 352.442 286.965 352.097C287.801 351.752 288.696 351.574 289.6 351.575Z" fill="#FEBD2F" stroke="#070707" stroke-width="4" stroke-linecap="round" stroke-linejoin="round"/>
<path d="M289.901 351.575H295.882C297.649 351.575 299.344 352.277 300.593 353.526C301.842 354.776 302.544 356.47 302.544 358.237V368.098C302.544 368.829 302.4 369.554 302.12 370.23C301.84 370.906 301.43 371.52 300.912 372.038C300.395 372.555 299.781 372.965 299.105 373.245C298.429 373.525 297.704 373.669 296.972 373.669H288.814C288.083 373.669 287.358 373.525 286.682 373.245C286.006 372.965 285.392 372.555 284.875 372.038C284.357 371.52 283.947 370.906 283.667 370.23C283.387 369.554 283.243 368.829 283.243 368.098V358.237C283.243 356.471 283.944 354.777 285.193 353.528C286.441 352.278 288.135 351.576 289.901 351.575Z" fill="#1C0E0C"/>
<path d="M284.055 351.575H290.036C291.803 351.575 293.498 352.277 294.747 353.526C295.996 354.776 296.698 356.47 296.698 358.237V368.098C296.698 368.829 296.554 369.554 296.274 370.23C295.994 370.906 295.584 371.52 295.066 372.038C294.549 372.555 293.935 372.965 293.259 373.245C292.583 373.525 291.858 373.669 291.126 373.669H282.965C282.233 373.669 281.509 373.525 280.833 373.245C280.157 372.965 279.543 372.555 279.025 372.038C278.508 371.52 278.097 370.906 277.817 370.23C277.537 369.554 277.393 368.829 277.393 368.098V358.237C277.393 356.47 278.095 354.776 279.344 353.526C280.594 352.277 282.288 351.575 284.055 351.575Z" fill="#FEBD2F" stroke="#070707" stroke-width="4" stroke-linecap="round" stroke-linejoin="round"/>
<path d="M293.127 358.62H280.755V366.344H293.127V358.62Z" fill="#FEBD2F" stroke="#070707" stroke-width="4" stroke-linecap="round" stroke-linejoin="round"/>
<path d="M293.438 342.825H289.962C287.284 342.825 285.45 345.737 286.431 348.421L287.582 351.559H295.818L296.969 348.421C297.951 345.737 296.116 342.825 293.438 342.825Z" fill="#1C0E0C"/>
<path d="M289.674 342.825H286.194C283.517 342.825 281.682 345.737 282.667 348.421L283.815 351.559H292.05L293.201 348.421C294.186 345.737 292.348 342.825 289.674 342.825Z" fill="#FEBD2F" stroke="#070707" stroke-width="4" stroke-linecap="round" stroke-linejoin="round"/>
<path d="M321.795 351.575H327.34C329.164 351.575 330.913 352.3 332.203 353.59C333.493 354.88 334.218 356.629 334.218 358.454V368.27C334.218 369.707 333.647 371.084 332.632 372.1C331.616 373.116 330.238 373.686 328.802 373.686H320.322C318.886 373.686 317.508 373.116 316.493 372.1C315.477 371.084 314.906 369.707 314.906 368.27V358.454C314.906 356.629 315.631 354.88 316.921 353.59C318.211 352.3 319.96 351.575 321.785 351.575H321.795Z" fill="#FEBD2F" stroke="#070707" stroke-width="4" stroke-linecap="round" stroke-linejoin="round"/>
<path d="M322.096 351.575H328.078C329.844 351.575 331.539 352.277 332.788 353.526C334.037 354.776 334.739 356.47 334.739 358.237V368.098C334.738 369.575 334.151 370.991 333.106 372.035C332.061 373.08 330.645 373.666 329.167 373.666H321.006C319.528 373.666 318.111 373.079 317.066 372.034C316.021 370.989 315.434 369.572 315.434 368.094V358.237C315.434 356.47 316.136 354.776 317.386 353.526C318.635 352.277 320.329 351.575 322.096 351.575Z" fill="#1C0E0C"/>
<path d="M316.25 351.575H322.232C323.998 351.575 325.693 352.277 326.942 353.526C328.191 354.776 328.893 356.47 328.893 358.237V368.098C328.893 368.829 328.749 369.554 328.469 370.23C328.189 370.906 327.779 371.52 327.261 372.038C326.744 372.555 326.13 372.965 325.454 373.245C324.778 373.525 324.053 373.669 323.322 373.669H315.16C314.429 373.669 313.704 373.525 313.028 373.245C312.352 372.965 311.738 372.555 311.22 372.038C310.703 371.52 310.293 370.906 310.013 370.23C309.733 369.554 309.588 368.829 309.588 368.098V358.237C309.588 356.47 310.29 354.776 311.54 353.526C312.789 352.277 314.483 351.575 316.25 351.575Z" fill="#FEBD2F" stroke="#070707" stroke-width="4" stroke-linecap="round" stroke-linejoin="round"/>
<path d="M325.319 358.62H312.946V366.344H325.319V358.62Z" fill="#FEBD2F" stroke="#070707" stroke-width="4" stroke-linecap="round" stroke-linejoin="round"/>
<path d="M325.901 342.825H322.692C320.014 342.825 318.18 345.737 319.165 348.421L320.312 351.559H328.281L329.432 348.421C330.413 345.737 328.578 342.825 325.901 342.825Z" fill="#1C0E0C"/>
<path d="M321.599 342.825H318.389C315.712 342.825 313.877 345.737 314.859 348.421L316.01 351.559H323.978L325.126 348.421C326.121 345.737 324.276 342.825 321.599 342.825Z" fill="#FEBD2F" stroke="#070707" stroke-width="4" stroke-linecap="round" stroke-linejoin="round"/>
<path d="M353.99 351.575H359.535C361.357 351.578 363.104 352.304 364.392 353.594C365.68 354.883 366.403 356.631 366.403 358.454V368.27C366.403 369.707 365.832 371.084 364.817 372.1C363.801 373.116 362.423 373.686 360.987 373.686H352.524C351.088 373.686 349.71 373.116 348.695 372.1C347.679 371.084 347.108 369.707 347.108 368.27V358.454C347.108 357.55 347.286 356.656 347.632 355.821C347.977 354.987 348.484 354.229 349.123 353.59C349.762 352.951 350.52 352.445 351.354 352.099C352.189 351.753 353.083 351.575 353.987 351.575H353.99Z" fill="#FEBD2F" stroke="#070707" stroke-width="4" stroke-linecap="round" stroke-linejoin="round"/>
<path d="M354.291 351.575H360.273C362.039 351.575 363.734 352.277 364.983 353.526C366.232 354.776 366.934 356.47 366.934 358.237V368.098C366.934 368.829 366.79 369.554 366.51 370.23C366.23 370.906 365.82 371.52 365.302 372.038C364.785 372.555 364.171 372.965 363.495 373.245C362.819 373.525 362.094 373.669 361.363 373.669H353.201C352.47 373.669 351.745 373.525 351.069 373.245C350.393 372.965 349.779 372.555 349.261 372.038C348.744 371.52 348.334 370.906 348.054 370.23C347.774 369.554 347.629 368.829 347.629 368.098V358.237C347.629 356.47 348.331 354.776 349.581 353.526C350.83 352.277 352.524 351.575 354.291 351.575Z" fill="#1C0E0C"/>
<path d="M348.445 351.575H354.427C356.193 351.575 357.888 352.277 359.137 353.526C360.387 354.776 361.088 356.47 361.088 358.237V368.098C361.088 368.829 360.944 369.554 360.664 370.23C360.384 370.906 359.974 371.52 359.457 372.038C358.939 372.555 358.325 372.965 357.649 373.245C356.973 373.525 356.248 373.669 355.517 373.669H347.352C346.62 373.669 345.896 373.525 345.22 373.245C344.544 372.965 343.929 372.555 343.412 372.038C342.895 371.52 342.484 370.906 342.204 370.23C341.924 369.554 341.78 368.829 341.78 368.098V358.237C341.78 357.362 341.953 356.495 342.288 355.687C342.623 354.878 343.114 354.144 343.733 353.525C344.351 352.907 345.086 352.416 345.895 352.081C346.704 351.747 347.57 351.575 348.445 351.575Z" fill="#FEBD2F" stroke="#070707" stroke-width="4" stroke-linecap="round" stroke-linejoin="round"/>
<path d="M357.514 358.62H345.141V366.344H357.514V358.62Z" fill="#FEBD2F" stroke="#070707" stroke-width="4" stroke-linecap="round" stroke-linejoin="round"/>
<path d="M357.829 342.825H353.811C351.133 342.825 349.298 345.737 350.283 348.421L351.431 351.559H360.205L361.356 348.421C362.341 345.737 360.506 342.825 357.829 342.825Z" fill="#1C0E0C"/>
<path d="M353.54 342.825H350.598C347.921 342.825 346.086 345.737 347.071 348.421L348.218 351.559H355.909L357.057 348.421C358.035 345.737 356.2 342.825 353.54 342.825Z" fill="#FEBD2F" stroke="#070707" stroke-width="4" stroke-linecap="round" stroke-linejoin="round"/>
<path d="M423.505 318.121H422.212C422.321 318.34 422.378 318.581 422.378 318.825V320.007C422.378 320.291 422.265 320.564 422.064 320.765C421.862 320.967 421.59 321.08 421.305 321.08H414.772C414.631 321.08 414.491 321.053 414.36 320.999C414.23 320.945 414.111 320.866 414.011 320.767C413.911 320.667 413.831 320.548 413.777 320.418C413.723 320.288 413.695 320.148 413.695 320.007V318.825C413.696 318.581 413.752 318.34 413.861 318.121H412.507V315.863C412.507 315.655 412.548 315.449 412.628 315.256C412.708 315.064 412.825 314.889 412.972 314.742C413.12 314.595 413.295 314.478 413.487 314.399C413.68 314.319 413.886 314.279 414.095 314.279H421.918C422.126 314.279 422.332 314.319 422.524 314.399C422.717 314.478 422.892 314.595 423.039 314.742C423.186 314.889 423.303 315.064 423.382 315.256C423.462 315.449 423.502 315.655 423.502 315.863L423.505 318.121Z" fill="#FEBD2F" stroke="#070707" stroke-width="4" stroke-linecap="round" stroke-linejoin="round"/>
<path d="M428.661 348.536L427.307 368.423C427.261 369.258 426.9 370.045 426.297 370.624C425.694 371.204 424.893 371.532 424.057 371.544H411.959C411.122 371.533 410.321 371.205 409.718 370.625C409.114 370.046 408.754 369.258 408.709 368.423L407.355 348.536H428.661Z" fill="#FEBD2F" stroke="#070707" stroke-width="4" stroke-linecap="round" stroke-linejoin="round"/>
<path d="M431.122 342.828L429.199 370.288C429.13 371.275 428.69 372.201 427.968 372.877C427.245 373.553 426.293 373.931 425.303 373.934H410.747C409.755 373.934 408.799 373.558 408.073 372.882C407.348 372.205 406.906 371.278 406.837 370.288L404.915 342.828C404.834 341.736 405.035 340.642 405.498 339.649C405.962 338.657 406.672 337.801 407.562 337.162C408.534 336.487 409.329 335.586 409.879 334.538C410.429 333.489 410.717 332.324 410.72 331.14L410.635 320.819C410.62 320.469 410.675 320.12 410.798 319.793C410.921 319.465 411.109 319.166 411.35 318.913C411.592 318.66 411.882 318.458 412.204 318.321C412.525 318.183 412.872 318.111 413.221 318.111H422.794C423.144 318.111 423.491 318.182 423.813 318.32C424.135 318.457 424.426 318.659 424.668 318.912C424.91 319.165 425.098 319.464 425.221 319.792C425.344 320.12 425.399 320.469 425.384 320.819L425.303 331.147C425.305 332.329 425.593 333.493 426.142 334.54C426.691 335.587 427.484 336.487 428.454 337.162C429.347 337.798 430.062 338.654 430.529 339.646C430.996 340.639 431.2 341.734 431.122 342.828Z" fill="#FEBD2F" stroke="#070707" stroke-width="4" stroke-linecap="round" stroke-linejoin="round"/>
<path d="M424.734 359.503C424.527 360.647 421.586 362.086 417.988 362.086C414.389 362.086 411.448 360.647 411.241 359.503L411.268 345.046C411.637 343.952 414.504 342.571 417.988 342.571C421.471 342.571 424.338 343.952 424.707 345.046L424.734 359.503Z" fill="#FEBD2F" stroke="#070707" stroke-width="4" stroke-linecap="round" stroke-linejoin="round"/>
<path d="M460.037 321.618V322.325C460.037 322.715 459.882 323.088 459.606 323.364C459.331 323.639 458.957 323.794 458.568 323.794V326.028C458.568 326.229 458.529 326.428 458.452 326.614C458.376 326.799 458.263 326.968 458.122 327.11C457.98 327.252 457.811 327.365 457.626 327.442C457.44 327.519 457.242 327.558 457.041 327.558H454.099C453.898 327.558 453.7 327.519 453.514 327.442C453.329 327.365 453.16 327.252 453.019 327.11C452.877 326.968 452.764 326.799 452.688 326.614C452.611 326.428 452.572 326.229 452.573 326.028V323.794C452.183 323.794 451.809 323.639 451.534 323.364C451.258 323.088 451.103 322.715 451.103 322.325V321.618C451.103 321.424 451.141 321.233 451.214 321.054C451.288 320.876 451.396 320.713 451.533 320.577C451.669 320.44 451.831 320.331 452.01 320.257C452.188 320.183 452.379 320.145 452.573 320.145H458.568C458.761 320.145 458.952 320.183 459.13 320.257C459.309 320.331 459.471 320.44 459.608 320.577C459.744 320.713 459.852 320.876 459.926 321.054C459.999 321.233 460.037 321.424 460.037 321.618Z" fill="#FEBD2F" stroke="#070707" stroke-width="4" stroke-linecap="round" stroke-linejoin="round"/>
<path d="M467.934 359.645C467.934 362.814 466.015 367.644 464.258 370.477C464.059 370.799 463.782 371.065 463.452 371.249C463.122 371.434 462.75 371.53 462.372 371.53H449.912C449.529 371.53 449.152 371.43 448.818 371.241C448.485 371.052 448.206 370.779 448.01 370.45C446.256 367.526 444.337 362.357 444.337 359.185C444.318 357.269 444.618 355.363 445.227 353.545H466.939C467.619 355.506 467.956 357.57 467.934 359.645Z" fill="#FEBD2F" stroke="#070707" stroke-width="4" stroke-linecap="round" stroke-linejoin="round"/>
<path d="M470.155 359.53C470.155 363.298 467.87 369.039 465.788 372.414C465.552 372.796 465.223 373.112 464.83 373.332C464.438 373.551 463.996 373.666 463.547 373.666H448.741C448.285 373.667 447.838 373.549 447.441 373.325C447.045 373.1 446.714 372.777 446.48 372.387C444.398 368.91 442.12 362.763 442.12 358.999C442.12 351.44 445.552 345.824 451.425 343.55V328.676L448.236 323.794H460.846V343.55C466.722 345.824 470.155 351.975 470.155 359.53Z" fill="#1C0E0C"/>
<path d="M460.846 327.558H465.057C465.72 327.559 466.374 327.719 466.963 328.026C467.551 328.332 468.057 328.776 468.438 329.32C468.819 329.864 469.063 330.491 469.149 331.149C469.236 331.807 469.163 332.476 468.936 333.1L464.4 345.577" fill="#FEBD2F"/>
<path d="M460.846 327.558H465.057C465.72 327.559 466.374 327.719 466.963 328.026C467.551 328.332 468.057 328.776 468.438 329.32C468.819 329.864 469.063 330.491 469.149 331.149C469.236 331.807 469.163 332.476 468.936 333.1L464.4 345.577" stroke="#070707" stroke-width="4" stroke-linecap="round" stroke-linejoin="round"/>
<path d="M396.103 336.319V372.201C396.103 372.659 395.921 373.099 395.597 373.424C395.272 373.748 394.832 373.93 394.374 373.93H380.701C380.474 373.931 380.249 373.886 380.038 373.8C379.828 373.713 379.637 373.586 379.476 373.425C379.315 373.264 379.187 373.073 379.1 372.863C379.013 372.653 378.968 372.428 378.968 372.201V336.319C378.968 335.113 379.387 333.945 380.154 333.014C380.921 332.084 381.989 331.45 383.172 331.221V322.664H391.902V331.221C393.086 331.451 394.152 332.085 394.919 333.015C395.685 333.946 396.104 335.114 396.103 336.319Z" fill="#FEBD2F" stroke="#070707" stroke-width="4" stroke-linecap="round" stroke-linejoin="round"/>
<path d="M393.588 341.478V369.875C393.588 370.914 392.85 371.757 391.936 371.757H383.135C382.225 371.757 381.483 370.914 381.483 369.875V341.478H393.588Z" fill="#1C0E0C"/>
<path d="M393.06 321.323H382.011C381.572 321.323 381.216 321.68 381.216 322.119V323.307C381.216 323.746 381.572 324.102 382.011 324.102H393.06C393.5 324.102 393.856 323.746 393.856 323.307V322.119C393.856 321.68 393.5 321.323 393.06 321.323Z" fill="#FEBD2F" stroke="#070707" stroke-width="4" stroke-linecap="round" stroke-linejoin="round"/>
<path d="M168.287 391.55H150.15V400.594L168.287 397.802V391.55Z" fill="#FEBD2F" stroke="#070707" stroke-width="4" stroke-linecap="round" stroke-linejoin="round"/>
<path d="M168.016 419.679H468.553" stroke="#070707" stroke-width="4" stroke-linecap="round" stroke-linejoin="round"/>
<path d="M501.107 374.993H136V391.549H501.107V374.993Z" fill="#FEBD2F" stroke="#070707" stroke-width="4" stroke-linecap="round" stroke-linejoin="round"/>
<path d="M168.287 391.55H150.15V419.679H168.287V391.55Z" fill="#FEBD2F" stroke="#070707" stroke-width="4" stroke-linecap="round" stroke-linejoin="round"/>
<path d="M487.239 391.55H469.098V400.594L487.239 397.802V391.55Z" fill="#FEBD2F" stroke="#070707" stroke-width="4" stroke-linecap="round" stroke-linejoin="round"/>
<path d="M487.235 391.55H469.098V419.679H487.235V391.55Z" fill="#FEBD2F" stroke="#070707" stroke-width="4" stroke-linecap="round" stroke-linejoin="round"/>
<path d="M200.901 443.046V475.4C200.901 487.221 203.982 495.585 209.906 506.204C209.906 506.204 220.227 475.793 220.975 446.793L200.901 443.046Z" fill="#FEBD2F" stroke="#070707" stroke-width="4" stroke-linecap="round" stroke-linejoin="round"/>
<path d="M209.906 444.694L200.901 443.046V412.895C200.901 410.719 202.916 408.952 205.404 408.952C207.888 408.952 209.906 410.719 209.906 412.895V444.694Z" fill="#FEBD2F" stroke="#070707" stroke-width="4" stroke-linecap="round" stroke-linejoin="round"/>
<path d="M250.57 443.046H238.739V506.204C238.739 506.204 250.57 485.176 250.57 443.046Z" fill="#FEBD2F" stroke="#070707" stroke-width="4" stroke-linecap="round" stroke-linejoin="round"/>
<path d="M247.744 443.046H238.739V412.895C238.739 410.719 240.754 408.952 243.242 408.952C245.726 408.952 247.744 410.719 247.744 412.895V443.046Z" fill="#FEBD2F" stroke="#070707" stroke-width="4" stroke-linecap="round" stroke-linejoin="round"/>
<path d="M282.914 446.664C282.757 446.806 282.631 446.979 282.545 447.172C282.459 447.365 282.415 447.574 282.415 447.785C282.415 447.996 282.459 448.205 282.545 448.398C282.631 448.591 282.757 448.764 282.914 448.905C282.979 448.962 283.032 449.031 283.068 449.11C283.103 449.188 283.122 449.273 283.122 449.359C283.122 449.445 283.103 449.53 283.068 449.608C283.032 449.687 282.979 449.756 282.914 449.813C282.757 449.954 282.631 450.127 282.545 450.321C282.459 450.514 282.415 450.723 282.415 450.935C282.415 451.146 282.459 451.356 282.545 451.549C282.631 451.742 282.757 451.915 282.914 452.057C282.98 452.112 283.033 452.182 283.069 452.26C283.105 452.338 283.124 452.423 283.124 452.509C283.124 452.595 283.105 452.68 283.069 452.758C283.033 452.836 282.98 452.905 282.914 452.961C282.757 453.102 282.631 453.275 282.545 453.468C282.459 453.661 282.415 453.87 282.415 454.081C282.415 454.292 282.459 454.501 282.545 454.695C282.631 454.888 282.757 455.06 282.914 455.202C282.979 455.258 283.032 455.327 283.068 455.406C283.103 455.484 283.122 455.569 283.122 455.655C283.122 455.741 283.103 455.826 283.068 455.905C283.032 455.983 282.979 456.053 282.914 456.109C282.757 456.25 282.631 456.423 282.545 456.616C282.459 456.809 282.415 457.018 282.415 457.229C282.415 457.441 282.459 457.65 282.545 457.843C282.631 458.036 282.757 458.208 282.914 458.35C282.98 458.406 283.033 458.475 283.069 458.553C283.105 458.632 283.124 458.717 283.124 458.803C283.124 458.89 283.105 458.975 283.069 459.053C283.033 459.131 282.98 459.201 282.914 459.257C282.757 459.398 282.631 459.571 282.545 459.764C282.459 459.957 282.415 460.166 282.415 460.377C282.415 460.589 282.459 460.798 282.545 460.991C282.631 461.184 282.757 461.357 282.914 461.498C282.979 461.554 283.032 461.624 283.068 461.702C283.103 461.78 283.122 461.865 283.122 461.951C283.122 462.037 283.103 462.122 283.068 462.201C283.032 462.279 282.979 462.349 282.914 462.405C282.757 462.546 282.631 462.719 282.545 462.912C282.459 463.105 282.415 463.314 282.415 463.525C282.415 463.737 282.459 463.946 282.545 464.139C282.631 464.332 282.757 464.505 282.914 464.646C282.98 464.702 283.033 464.771 283.069 464.85C283.105 464.928 283.124 465.013 283.124 465.099C283.124 465.186 283.105 465.271 283.069 465.349C283.033 465.428 282.98 465.497 282.914 465.553C282.757 465.694 282.631 465.867 282.545 466.06C282.459 466.253 282.415 466.462 282.415 466.673C282.415 466.885 282.459 467.094 282.545 467.287C282.631 467.48 282.757 467.653 282.914 467.794C282.979 467.85 283.032 467.92 283.068 467.998C283.103 468.076 283.122 468.161 283.122 468.248C283.122 468.334 283.103 468.419 283.068 468.497C283.032 468.575 282.979 468.645 282.914 468.701C282.757 468.843 282.631 469.016 282.545 469.209C282.459 469.402 282.415 469.612 282.415 469.823C282.415 470.035 282.459 470.244 282.545 470.437C282.631 470.631 282.757 470.804 282.914 470.945C282.98 471.001 283.033 471.071 283.069 471.149C283.105 471.228 283.124 471.313 283.124 471.399C283.124 471.485 283.105 471.57 283.069 471.649C283.033 471.727 282.98 471.797 282.914 471.853C282.757 471.994 282.631 472.167 282.545 472.36C282.459 472.553 282.415 472.762 282.415 472.973C282.415 473.184 282.459 473.393 282.545 473.586C282.631 473.779 282.757 473.952 282.914 474.093C282.979 474.15 283.032 474.219 283.068 474.298C283.103 474.376 283.122 474.461 283.122 474.547C283.122 474.633 283.103 474.718 283.068 474.797C283.032 474.875 282.979 474.944 282.914 475.001C282.757 475.142 282.631 475.315 282.545 475.509C282.459 475.702 282.415 475.911 282.415 476.123C282.415 476.334 282.459 476.544 282.545 476.737C282.631 476.93 282.757 477.103 282.914 477.245C282.98 477.301 283.033 477.37 283.069 477.449C283.105 477.527 283.124 477.612 283.124 477.699C283.124 477.785 283.105 477.87 283.069 477.948C283.033 478.027 282.98 478.096 282.914 478.152C282.757 478.293 282.631 478.466 282.545 478.659C282.459 478.852 282.415 479.061 282.415 479.273C282.415 479.484 282.459 479.693 282.545 479.886C282.631 480.079 282.757 480.252 282.914 480.393C282.979 480.449 283.032 480.519 283.068 480.597C283.103 480.676 283.122 480.761 283.122 480.847C283.122 480.933 283.103 481.018 283.068 481.096C283.032 481.174 282.979 481.244 282.914 481.3C282.757 481.442 282.631 481.615 282.545 481.808C282.459 482.002 282.415 482.211 282.415 482.422C282.415 482.634 282.459 482.843 282.545 483.037C282.631 483.23 282.757 483.403 282.914 483.545C282.98 483.6 283.033 483.67 283.069 483.748C283.105 483.827 283.124 483.912 283.124 483.998C283.124 484.084 283.105 484.17 283.069 484.248C283.033 484.326 282.98 484.396 282.914 484.452C282.757 484.593 282.631 484.766 282.545 484.96C282.459 485.153 282.415 485.362 282.415 485.574C282.415 485.786 282.459 485.995 282.545 486.188C282.631 486.381 282.757 486.554 282.914 486.696C282.979 486.752 283.032 486.822 283.068 486.9C283.103 486.978 283.122 487.063 283.122 487.15C283.122 487.236 283.103 487.321 283.068 487.399C283.032 487.477 282.979 487.547 282.914 487.603C282.757 487.745 282.631 487.918 282.545 488.111C282.459 488.304 282.415 488.514 282.415 488.725C282.415 488.937 282.459 489.146 282.545 489.34C282.631 489.533 282.757 489.706 282.914 489.847C282.98 489.903 283.033 489.973 283.069 490.051C283.105 490.13 283.124 490.215 283.124 490.301C283.124 490.387 283.105 490.473 283.069 490.551C283.033 490.629 282.98 490.699 282.914 490.755C282.757 490.896 282.631 491.069 282.545 491.262C282.459 491.455 282.415 491.664 282.415 491.875C282.415 492.086 282.459 492.295 282.545 492.489C282.631 492.682 282.757 492.854 282.914 492.996C282.979 493.052 283.032 493.121 283.068 493.2C283.103 493.278 283.122 493.363 283.122 493.449C283.122 493.535 283.103 493.62 283.068 493.699C283.032 493.777 282.979 493.847 282.914 493.903C282.757 494.044 282.631 494.217 282.545 494.411C282.459 494.604 282.415 494.813 282.415 495.025C282.415 495.237 282.459 495.446 282.545 495.639C282.631 495.832 282.757 496.005 282.914 496.147C282.98 496.203 283.033 496.272 283.069 496.35C283.105 496.428 283.124 496.513 283.124 496.599C283.124 496.685 283.105 496.77 283.069 496.848C283.033 496.926 282.98 496.995 282.914 497.051C282.757 497.192 282.631 497.365 282.545 497.558C282.459 497.751 282.415 497.96 282.415 498.171C282.415 498.383 282.459 498.592 282.545 498.785C282.631 498.978 282.757 499.15 282.914 499.292C282.979 499.348 283.032 499.418 283.068 499.496C283.103 499.574 283.122 499.659 283.122 499.745C283.122 499.831 283.103 499.917 283.068 499.995C283.032 500.073 282.979 500.143 282.914 500.199C282.757 500.34 282.631 500.513 282.545 500.706C282.459 500.899 282.415 501.108 282.415 501.319C282.415 501.531 282.459 501.74 282.545 501.933C282.631 502.126 282.757 502.299 282.914 502.44C282.98 502.496 283.033 502.565 283.069 502.644C283.105 502.722 283.124 502.807 283.124 502.893C283.124 502.98 283.105 503.065 283.069 503.143C283.033 503.222 282.98 503.291 282.914 503.347C282.633 503.656 282.459 504.048 282.42 504.464C282.42 504.803 282.42 506.042 283.351 506.042H282.921C275.254 506.042 269.042 500.598 269.042 493.886V443.046H283.354C282.891 443.046 283.222 443.222 282.918 443.506C282.76 443.648 282.635 443.821 282.548 444.014C282.462 444.207 282.418 444.417 282.418 444.628C282.418 444.84 282.462 445.049 282.548 445.243C282.635 445.436 282.76 445.609 282.918 445.751C282.983 445.806 283.036 445.876 283.072 445.954C283.108 446.033 283.127 446.118 283.127 446.204C283.127 446.29 283.108 446.376 283.072 446.454C283.036 446.532 282.983 446.602 282.918 446.658L282.914 446.664Z" fill="#FEBD2F" stroke="#070707" stroke-width="4" stroke-linecap="round" stroke-linejoin="round"/>
<path d="M278.053 443.046H269.049V412.895C269.049 410.719 271.08 408.952 273.551 408.952C276.039 408.952 278.053 410.719 278.053 412.895V443.046Z" fill="#FEBD2F" stroke="#070707" stroke-width="4" stroke-linecap="round" stroke-linejoin="round"/>
<path d="M325.718 462.456C325.718 469.727 324.334 476.419 322.902 481.727H301.6C300.168 481.727 299.085 480.586 299.359 479.357C300.524 473.8 301.091 468.134 301.051 462.456C301.051 455.117 300.185 448.374 298.733 443.046H322.854C324.317 448.374 325.718 455.117 325.718 462.456Z" fill="#FEBD2F" stroke="#070707" stroke-width="4" stroke-linecap="round" stroke-linejoin="round"/>
<path d="M307.7 443.046H298.702V412.895C298.702 410.719 300.716 408.952 303.204 408.952C305.689 408.952 307.706 410.719 307.706 412.895L307.7 443.046Z" fill="#FEBD2F" stroke="#070707" stroke-width="4" stroke-linecap="round" stroke-linejoin="round"/>
<path d="M354.4 442.775C354.061 464.778 343.72 480.897 343.72 480.897V442.775H354.4Z" fill="#FEBD2F" stroke="#070707" stroke-width="4" stroke-linecap="round" stroke-linejoin="round"/>
<path d="M350.649 442.775H343.723V412.625C343.723 410.594 345.273 408.955 347.186 408.955C349.102 408.955 350.652 410.597 350.652 412.625L350.649 442.775Z" fill="#FEBD2F" stroke="#070707" stroke-width="4" stroke-linecap="round" stroke-linejoin="round"/>
<path d="M395.68 454.48V454.501C395.676 455.002 395.473 455.482 395.115 455.834C394.758 456.186 394.276 456.382 393.774 456.379H393.51C393.592 455.731 393.633 455.077 393.632 454.423C393.632 446.813 388.179 440.642 381.446 440.642C374.713 440.642 369.26 446.813 369.26 454.423C369.259 455.077 369.3 455.731 369.382 456.379H369.111C368.609 456.382 368.127 456.186 367.77 455.834C367.413 455.482 367.21 455.002 367.205 454.501V454.48C367.205 448.414 370.17 443.134 374.551 440.389C375.673 439.698 376.601 438.732 377.247 437.583C377.894 436.434 378.236 435.14 378.244 433.822V412.387C378.244 410.488 379.672 408.952 381.436 408.952C381.862 408.954 382.282 409.045 382.671 409.22C383.059 409.395 383.406 409.65 383.69 409.967C384.299 410.628 384.634 411.496 384.628 412.394V433.828C384.635 435.146 384.978 436.44 385.623 437.589C386.269 438.738 387.196 439.704 388.318 440.395C392.715 443.134 395.68 448.414 395.68 454.48Z" fill="#FEBD2F" stroke="#070707" stroke-width="4" stroke-linecap="round" stroke-linejoin="round"/>
<path d="M391.154 453.194H371.741C371.413 453.195 371.087 453.26 370.784 453.386C370.481 453.512 370.205 453.697 369.973 453.929C369.741 454.162 369.557 454.438 369.432 454.741C369.307 455.045 369.243 455.371 369.243 455.699V457.937C369.243 458.265 369.307 458.59 369.432 458.894C369.558 459.197 369.741 459.473 369.974 459.705C370.206 459.938 370.481 460.122 370.784 460.248C371.088 460.373 371.413 460.438 371.741 460.438H391.154C391.818 460.438 392.455 460.175 392.924 459.706C393.394 459.237 393.658 458.6 393.659 457.937V455.699C393.659 455.035 393.395 454.398 392.926 453.928C392.456 453.458 391.819 453.194 391.154 453.194ZM391.469 458.17H371.426V455.564H391.469V458.17Z" fill="#070707"/>
<path d="M428.884 440.906H421.955V412.418C421.954 411.963 422.044 411.512 422.218 411.091C422.392 410.67 422.647 410.288 422.969 409.966C423.291 409.644 423.673 409.389 424.094 409.215C424.515 409.041 424.966 408.951 425.421 408.952C425.876 408.952 426.327 409.041 426.747 409.216C427.168 409.39 427.549 409.645 427.871 409.967C428.193 410.289 428.448 410.671 428.621 411.092C428.795 411.512 428.885 411.963 428.884 412.418V440.906Z" fill="#FEBD2F" stroke="#070707" stroke-width="4" stroke-linecap="round" stroke-linejoin="round"/>
<path d="M434.747 466.572C439.899 461.42 439.899 453.068 434.747 447.916C429.595 442.764 421.243 442.764 416.091 447.916C410.94 453.068 410.94 461.42 416.091 466.572C421.243 471.723 429.595 471.723 434.747 466.572Z" fill="#FEBD2F" stroke="#070707" stroke-width="4" stroke-linecap="round" stroke-linejoin="round"/>
<path d="M427.901 457.877C428.228 456.511 427.386 455.139 426.02 454.813C424.655 454.486 423.283 455.328 422.956 456.693C422.63 458.059 423.472 459.43 424.837 459.757C426.202 460.084 427.574 459.242 427.901 457.877Z" fill="#FEBD2F" stroke="#070707" stroke-width="4" stroke-linecap="round" stroke-linejoin="round"/>
<path d="M410.777 449.657C412.169 446.975 414.27 444.727 416.852 443.157C419.434 441.588 422.398 440.758 425.419 440.758C428.441 440.758 431.404 441.588 433.986 443.157C436.569 444.727 438.67 446.975 440.061 449.657" stroke="#070707" stroke-width="4" stroke-linecap="round" stroke-linejoin="round"/>
<path d="M425.421 440.758V457.26" stroke="#070707" stroke-width="4" stroke-linecap="round" stroke-linejoin="round"/>
<path d="M166.713 284.284H149.31V293.329L166.713 290.533V284.284Z" fill="#FEBD2F" stroke="#070707" stroke-width="4" stroke-linecap="round" stroke-linejoin="round"/>
<path d="M136 284.281L501.107 284.281V267.725L136 267.725V284.281Z" fill="#FEBD2F" stroke="#070707" stroke-width="4" stroke-linecap="round" stroke-linejoin="round"/>
<path d="M470.127 312.411H487.53V284.281H470.127V312.411Z" fill="#FEBD2F" stroke="#070707" stroke-width="4" stroke-linecap="round" stroke-linejoin="round"/>
<path d="M487.533 284.284H470.131V293.329L487.533 290.533V284.284Z" fill="#FEBD2F" stroke="#070707" stroke-width="4" stroke-linecap="round" stroke-linejoin="round"/>
<path d="M149.31 312.411H166.712V284.281H149.31V312.411Z" fill="#FEBD2F" stroke="#070707" stroke-width="4" stroke-linecap="round" stroke-linejoin="round"/>
<path d="M487.418 214.962C487.419 215.106 487.39 215.25 487.335 215.383C487.28 215.517 487.199 215.639 487.097 215.741C486.995 215.843 486.873 215.924 486.74 215.979C486.606 216.034 486.463 216.062 486.318 216.062H456.191V223.154C456.191 224.865 455.511 226.506 454.301 227.716C453.091 228.926 451.45 229.606 449.739 229.606H446.774C445.926 229.606 445.087 229.439 444.304 229.115C443.521 228.791 442.809 228.316 442.21 227.717C441.61 227.118 441.135 226.406 440.81 225.623C440.486 224.84 440.319 224.001 440.319 223.154V213.852H486.311C486.457 213.851 486.601 213.88 486.736 213.935C486.871 213.991 486.993 214.073 487.096 214.176C487.199 214.279 487.281 214.402 487.336 214.537C487.391 214.672 487.419 214.816 487.418 214.962Z" fill="#FEBD2F" stroke="#070707" stroke-width="4" stroke-linecap="round" stroke-linejoin="round"/>
<path d="M418.719 267.643H410.48L402.508 210.805H410.747L418.719 267.643Z" fill="#FEBD2F" stroke="#070707" stroke-width="4" stroke-linecap="round" stroke-linejoin="round"/>
<path d="M410.48 267.643H371.782L379.754 210.805H402.508L410.48 267.643Z" fill="#FEBD2F" stroke="#070707" stroke-width="4" stroke-linecap="round" stroke-linejoin="round"/>
<path d="M385.271 217.646H385.207C384.553 217.646 384.022 218.177 384.022 218.831V221.356C384.022 222.011 384.553 222.541 385.207 222.541H385.271C385.926 222.541 386.456 222.011 386.456 221.356V218.831C386.456 218.177 385.926 217.646 385.271 217.646Z" fill="#FEBD2F" stroke="#070707" stroke-width="4" stroke-linecap="round" stroke-linejoin="round"/>
<path d="M390.853 217.646H390.789C390.134 217.646 389.604 218.177 389.604 218.831V221.356C389.604 222.011 390.134 222.541 390.789 222.541H390.853C391.507 222.541 392.038 222.011 392.038 221.356V218.831C392.038 218.177 391.507 217.646 390.853 217.646Z" fill="#FEBD2F" stroke="#070707" stroke-width="4" stroke-linecap="round" stroke-linejoin="round"/>
<path d="M396.435 217.646H396.371C395.716 217.646 395.186 218.177 395.186 218.831V221.356C395.186 222.011 395.716 222.541 396.371 222.541H396.435C397.089 222.541 397.62 222.011 397.62 221.356V218.831C397.62 218.177 397.089 217.646 396.435 217.646Z" fill="#FEBD2F" stroke="#070707" stroke-width="4" stroke-linecap="round" stroke-linejoin="round"/>
<path d="M382.614 226.674H382.55C381.895 226.674 381.365 227.205 381.365 227.859V230.384C381.365 231.038 381.895 231.569 382.55 231.569H382.614C383.268 231.569 383.799 231.038 383.799 230.384V227.859C383.799 227.205 383.268 226.674 382.614 226.674Z" fill="#FEBD2F" stroke="#070707" stroke-width="4" stroke-linecap="round" stroke-linejoin="round"/>
<path d="M388.196 226.674H388.132C387.477 226.674 386.947 227.205 386.947 227.859V230.384C386.947 231.038 387.477 231.569 388.132 231.569H388.196C388.85 231.569 389.381 231.038 389.381 230.384V227.859C389.381 227.205 388.85 226.674 388.196 226.674Z" fill="#FEBD2F" stroke="#070707" stroke-width="4" stroke-linecap="round" stroke-linejoin="round"/>
<path d="M393.778 226.674H393.713C393.059 226.674 392.529 227.205 392.529 227.859V230.384C392.529 231.038 393.059 231.569 393.713 231.569H393.778C394.432 231.569 394.963 231.038 394.963 230.384V227.859C394.963 227.205 394.432 226.674 393.778 226.674Z" fill="#FEBD2F" stroke="#070707" stroke-width="4" stroke-linecap="round" stroke-linejoin="round"/>
<path d="M399.36 226.674H399.295C398.641 226.674 398.111 227.205 398.111 227.859V230.384C398.111 231.038 398.641 231.569 399.295 231.569H399.36C400.014 231.569 400.545 231.038 400.545 230.384V227.859C400.545 227.205 400.014 226.674 399.36 226.674Z" fill="#FEBD2F" stroke="#070707" stroke-width="4" stroke-linecap="round" stroke-linejoin="round"/>
<path d="M382.614 235.702H382.55C381.895 235.702 381.365 236.233 381.365 236.887V239.412C381.365 240.066 381.895 240.597 382.55 240.597H382.614C383.268 240.597 383.799 240.066 383.799 239.412V236.887C383.799 236.233 383.268 235.702 382.614 235.702Z" fill="#FEBD2F" stroke="#070707" stroke-width="4" stroke-linecap="round" stroke-linejoin="round"/>
<path d="M388.196 235.702H388.132C387.477 235.702 386.947 236.233 386.947 236.887V239.412C386.947 240.066 387.477 240.597 388.132 240.597H388.196C388.85 240.597 389.381 240.066 389.381 239.412V236.887C389.381 236.233 388.85 235.702 388.196 235.702Z" fill="#FEBD2F" stroke="#070707" stroke-width="4" stroke-linecap="round" stroke-linejoin="round"/>
<path d="M393.778 235.702H393.713C393.059 235.702 392.529 236.233 392.529 236.887V239.412C392.529 240.066 393.059 240.597 393.713 240.597H393.778C394.432 240.597 394.963 240.066 394.963 239.412V236.887C394.963 236.233 394.432 235.702 393.778 235.702Z" fill="#FEBD2F" stroke="#070707" stroke-width="4" stroke-linecap="round" stroke-linejoin="round"/>
<path d="M399.36 235.702H399.295C398.641 235.702 398.111 236.233 398.111 236.887V239.412C398.111 240.066 398.641 240.597 399.295 240.597H399.36C400.014 240.597 400.545 240.066 400.545 239.412V236.887C400.545 236.233 400.014 235.702 399.36 235.702Z" fill="#FEBD2F" stroke="#070707" stroke-width="4" stroke-linecap="round" stroke-linejoin="round"/>
<path d="M379.957 244.73H379.892C379.238 244.73 378.708 245.26 378.708 245.915V248.44C378.708 249.094 379.238 249.625 379.892 249.625H379.957C380.611 249.625 381.141 249.094 381.141 248.44V245.915C381.141 245.26 380.611 244.73 379.957 244.73Z" fill="#FEBD2F" stroke="#070707" stroke-width="4" stroke-linecap="round" stroke-linejoin="round"/>
<path d="M385.539 244.73H385.474C384.82 244.73 384.29 245.26 384.29 245.915V248.44C384.29 249.094 384.82 249.625 385.474 249.625H385.539C386.193 249.625 386.723 249.094 386.723 248.44V245.915C386.723 245.26 386.193 244.73 385.539 244.73Z" fill="#FEBD2F" stroke="#070707" stroke-width="4" stroke-linecap="round" stroke-linejoin="round"/>
<path d="M391.117 244.73H391.053C390.399 244.73 389.868 245.26 389.868 245.915V248.44C389.868 249.094 390.399 249.625 391.053 249.625H391.117C391.771 249.625 392.302 249.094 392.302 248.44V245.915C392.302 245.26 391.771 244.73 391.117 244.73Z" fill="#FEBD2F" stroke="#070707" stroke-width="4" stroke-linecap="round" stroke-linejoin="round"/>
<path d="M396.699 244.73H396.635C395.98 244.73 395.45 245.26 395.45 245.915V248.44C395.45 249.094 395.98 249.625 396.635 249.625H396.699C397.353 249.625 397.884 249.094 397.884 248.44V245.915C397.884 245.26 397.353 244.73 396.699 244.73Z" fill="#FEBD2F" stroke="#070707" stroke-width="4" stroke-linecap="round" stroke-linejoin="round"/>
<path d="M402.281 244.73H402.217C401.562 244.73 401.032 245.26 401.032 245.915V248.44C401.032 249.094 401.562 249.625 402.217 249.625H402.281C402.935 249.625 403.466 249.094 403.466 248.44V245.915C403.466 245.26 402.935 244.73 402.281 244.73Z" fill="#FEBD2F" stroke="#070707" stroke-width="4" stroke-linecap="round" stroke-linejoin="round"/>
<path d="M379.957 253.755H379.892C379.238 253.755 378.708 254.285 378.708 254.939V257.465C378.708 258.119 379.238 258.649 379.892 258.649H379.957C380.611 258.649 381.141 258.119 381.141 257.465V254.939C381.141 254.285 380.611 253.755 379.957 253.755Z" fill="#FEBD2F" stroke="#070707" stroke-width="4" stroke-linecap="round" stroke-linejoin="round"/>
<path d="M385.539 253.755H385.474C384.82 253.755 384.29 254.285 384.29 254.939V257.465C384.29 258.119 384.82 258.649 385.474 258.649H385.539C386.193 258.649 386.723 258.119 386.723 257.465V254.939C386.723 254.285 386.193 253.755 385.539 253.755Z" fill="#FEBD2F" stroke="#070707" stroke-width="4" stroke-linecap="round" stroke-linejoin="round"/>
<path d="M391.117 253.755H391.053C390.399 253.755 389.868 254.285 389.868 254.939V257.465C389.868 258.119 390.399 258.649 391.053 258.649H391.117C391.771 258.649 392.302 258.119 392.302 257.465V254.939C392.302 254.285 391.771 253.755 391.117 253.755Z" fill="#FEBD2F" stroke="#070707" stroke-width="4" stroke-linecap="round" stroke-linejoin="round"/>
<path d="M396.699 253.755H396.635C395.98 253.755 395.45 254.285 395.45 254.939V257.465C395.45 258.119 395.98 258.649 396.635 258.649H396.699C397.353 258.649 397.884 258.119 397.884 257.465V254.939C397.884 254.285 397.353 253.755 396.699 253.755Z" fill="#FEBD2F" stroke="#070707" stroke-width="4" stroke-linecap="round" stroke-linejoin="round"/>
<path d="M402.281 253.755H402.217C401.562 253.755 401.032 254.285 401.032 254.939V257.465C401.032 258.119 401.562 258.649 402.217 258.649H402.281C402.935 258.649 403.466 258.119 403.466 257.465V254.939C403.466 254.285 402.935 253.755 402.281 253.755Z" fill="#FEBD2F" stroke="#070707" stroke-width="4" stroke-linecap="round" stroke-linejoin="round"/>
<path d="M400.473 200.531H390.027C387.302 200.531 384.689 201.614 382.763 203.541C380.836 205.467 379.754 208.08 379.754 210.805H410.747C410.747 208.08 409.665 205.467 407.738 203.541C405.811 201.614 403.198 200.531 400.473 200.531Z" fill="#FEBD2F" stroke="#070707" stroke-width="4" stroke-linecap="round" stroke-linejoin="round"/>
<path d="M389.76 200.531H392.508C395.161 200.531 397.706 201.585 399.581 203.461C401.457 205.337 402.511 207.881 402.511 210.534V210.805H379.754V210.534C379.754 209.22 380.012 207.919 380.515 206.706C381.018 205.492 381.755 204.389 382.685 203.46C383.614 202.531 384.717 201.794 385.931 201.292C387.145 200.789 388.446 200.531 389.76 200.531Z" fill="#FEBD2F" stroke="#070707" stroke-width="4" stroke-linecap="round" stroke-linejoin="round"/>
<path d="M469.501 219.197V263.706C469.502 264.747 469.09 265.746 468.356 266.484C467.622 267.222 466.626 267.639 465.585 267.643H441.124C440.606 267.646 440.093 267.545 439.613 267.348C439.134 267.152 438.698 266.862 438.331 266.496C437.964 266.13 437.673 265.695 437.474 265.217C437.276 264.738 437.174 264.225 437.174 263.706V240.509C437.177 233.039 435.254 225.694 431.592 219.183L469.501 219.197Z" fill="#FEBD2F" stroke="#070707" stroke-width="4" stroke-linecap="round" stroke-linejoin="round"/>
<path d="M469.501 227.689H464.894" stroke="#070707" stroke-width="4" stroke-linecap="round" stroke-linejoin="round"/>
<path d="M469.501 238.41H464.894" stroke="#070707" stroke-width="4" stroke-linecap="round" stroke-linejoin="round"/>
<path d="M469.501 233.051H460.284" stroke="#070707" stroke-width="4" stroke-linecap="round" stroke-linejoin="round"/>
<path d="M469.501 243.772H460.284" stroke="#070707" stroke-width="4" stroke-linecap="round" stroke-linejoin="round"/>
<path d="M469.501 249.13H464.894" stroke="#070707" stroke-width="4" stroke-linecap="round" stroke-linejoin="round"/>
<path d="M469.501 259.851H464.894" stroke="#070707" stroke-width="4" stroke-linecap="round" stroke-linejoin="round"/>
<path d="M469.501 254.492H460.284" stroke="#070707" stroke-width="4" stroke-linecap="round" stroke-linejoin="round"/>
<path d="M198.102 168.089H255.526V196.862C255.526 199.895 254.321 202.803 252.177 204.948C250.032 207.092 247.124 208.297 244.091 208.297H209.54C206.507 208.297 203.599 207.092 201.455 204.948C199.31 202.803 198.105 199.895 198.105 196.862V168.089H198.102Z" fill="#FEBD2F" stroke="#070707" stroke-width="4" stroke-linecap="round" stroke-linejoin="round"/>
<path d="M255.526 168.089H264.852C265.682 168.089 266.479 168.419 267.066 169.006C267.653 169.594 267.983 170.39 267.983 171.22V171.654C267.983 172.484 267.653 173.281 267.066 173.868C266.479 174.455 265.682 174.785 264.852 174.785H255.509V168.089H255.526Z" fill="#FEBD2F" stroke="#070707" stroke-width="4" stroke-linecap="round" stroke-linejoin="round"/>
<path d="M198.092 174.781H188.749C187.919 174.781 187.122 174.452 186.535 173.864C185.948 173.277 185.618 172.481 185.618 171.65V171.217C185.618 170.387 185.948 169.59 186.535 169.003C187.122 168.416 187.919 168.086 188.749 168.086H198.092V174.781Z" fill="#FEBD2F" stroke="#070707" stroke-width="4" stroke-linecap="round" stroke-linejoin="round"/>
<path d="M188.011 182.195H265.603V225.097C265.603 228.129 264.398 231.038 262.254 233.182C260.11 235.327 257.201 236.531 254.168 236.531H199.459C197.957 236.533 196.468 236.239 195.079 235.665C193.691 235.091 192.428 234.249 191.365 233.187C190.302 232.125 189.458 230.864 188.883 229.476C188.307 228.087 188.011 226.599 188.011 225.097V182.195Z" fill="#FEBD2F" stroke="#070707" stroke-width="4" stroke-linecap="round" stroke-linejoin="round"/>
<path d="M265.603 182.195H278.226C279.348 182.195 280.423 182.642 281.216 183.435C282.009 184.229 282.454 185.304 282.454 186.426V187.008C282.454 188.13 282.008 189.207 281.215 190C280.421 190.794 279.345 191.239 278.223 191.239H265.603V182.195Z" fill="#FEBD2F" stroke="#070707" stroke-width="4" stroke-linecap="round" stroke-linejoin="round"/>
<path d="M188.025 191.243H175.402C174.282 191.239 173.209 190.792 172.419 189.999C171.628 189.206 171.184 188.131 171.184 187.011V186.429C171.184 185.307 171.63 184.231 172.423 183.437C173.217 182.644 174.293 182.198 175.415 182.198H188.025V191.243Z" fill="#FEBD2F" stroke="#070707" stroke-width="4" stroke-linecap="round" stroke-linejoin="round"/>
<path d="M264.391 267.464H189.243C186.211 267.463 183.303 266.258 181.159 264.114C179.015 261.969 177.81 259.062 177.809 256.029V198.822H275.826V256.029C275.826 259.062 274.621 261.97 272.477 264.115C270.332 266.259 267.424 267.464 264.391 267.464Z" fill="#FEBD2F" stroke="#070707" stroke-width="4" stroke-linecap="round" stroke-linejoin="round"/>
<path d="M292.948 210.223H275.826V201.896H292.948C294.052 201.896 295.111 202.334 295.892 203.115C296.672 203.896 297.111 204.955 297.111 206.059C297.111 207.163 296.672 208.223 295.892 209.003C295.111 209.784 294.052 210.223 292.948 210.223Z" fill="#FEBD2F" stroke="#070707" stroke-width="4" stroke-linecap="round" stroke-linejoin="round"/>
<path d="M160.674 210.223H177.802V201.896H160.674C159.569 201.896 158.51 202.334 157.729 203.115C156.949 203.896 156.51 204.955 156.51 206.059C156.51 206.606 156.617 207.148 156.826 207.653C157.035 208.158 157.342 208.618 157.728 209.004C158.115 209.391 158.574 209.698 159.08 209.907C159.585 210.116 160.127 210.223 160.674 210.223Z" fill="#FEBD2F" stroke="#070707" stroke-width="4" stroke-linecap="round" stroke-linejoin="round"/>
<path d="M275.965 197.272H177.612C176.332 197.272 175.294 198.31 175.294 199.59V199.594C175.294 200.874 176.332 201.913 177.612 201.913H275.965C277.245 201.913 278.284 200.874 278.284 199.594V199.59C278.284 198.31 277.245 197.272 275.965 197.272Z" fill="#FEBD2F" stroke="#070707" stroke-width="4" stroke-linecap="round" stroke-linejoin="round"/>
<path d="M255.526 168.089H198.102C200.888 162.741 212.685 158.726 226.817 158.726C240.95 158.726 252.743 162.741 255.526 168.089Z" fill="#FEBD2F" stroke="#070707" stroke-width="4" stroke-linecap="round" stroke-linejoin="round"/>
<path d="M232.315 152H221.313C221.067 152 220.824 152.061 220.607 152.177C220.389 152.292 220.203 152.459 220.064 152.663C219.926 152.867 219.839 153.101 219.812 153.346C219.785 153.591 219.818 153.839 219.908 154.068L221.862 159H231.773L233.709 154.068C233.799 153.84 233.833 153.593 233.806 153.349C233.779 153.105 233.694 152.871 233.556 152.667C233.419 152.464 233.234 152.296 233.018 152.18C232.802 152.064 232.56 152.002 232.315 152Z" fill="#FEBD2F" stroke="#070707" stroke-width="4" stroke-linecap="round" stroke-linejoin="round"/>
<path d="M345.565 224.003V264.099C345.565 266.059 343.517 267.643 340.988 267.643H312.53C310.001 267.643 307.953 266.059 307.953 264.099V243.2C307.953 236.474 305.716 229.863 301.458 224.003H345.565Z" fill="#FEBD2F" stroke="#070707" stroke-width="4" stroke-linecap="round" stroke-linejoin="round"/>
<path d="M361.325 226.315V245.823C360.41 245.825 359.532 245.464 358.883 244.818C358.234 244.173 357.869 243.296 357.866 242.381V229.89C357.866 229.276 357.622 228.687 357.188 228.253C356.753 227.819 356.165 227.575 355.55 227.575H345.568V224.003H359.003C359.308 224.002 359.609 224.061 359.891 224.176C360.173 224.292 360.429 224.462 360.645 224.677C360.86 224.892 361.032 225.147 361.148 225.428C361.265 225.709 361.325 226.011 361.325 226.315Z" fill="#FEBD2F" stroke="#070707" stroke-width="4" stroke-linecap="round" stroke-linejoin="round"/>
<path fill-rule="evenodd" clip-rule="evenodd" d="M83.0563 40.8615C78.0233 55.1586 69.3238 69.8988 62.4957 82.596C55.5603 95.3689 36.7522 134.512 51.0879 150.263C61.8373 162.074 76.0258 162.189 82.7527 150.519C85.5024 143.745 87.803 137.772 89.4224 132.019C91.4712 124.74 92.8141 118.768 93.937 114.182C97.0836 101.609 100.906 89.3832 103.873 76.5011C105.278 70.4011 106.67 64.4551 107.527 58.142C108.693 49.5611 116.57 31.86 114.271 21.8672C111.746 10.8839 106.898 -4.05428 97.1232 -3.38721C72.0096 -1.67347 50.4762 14.5586 27.7915 24.1617C20.2127 27.37 15.8444 17.9628 19.3785 10.8998C25.5028 -1.34014 33.448 -16.8012 48.4486 -32.6573C55.1512 -41.7647 62.5153 -54.0568 55.5229 -66.1854C48.5307 -78.314 37.5534 -80.9099 29.6885 -74.3711C0.36538 -43.2186 -10.1914 -17.8802 -12.7936 1.57284C-16.9924 32.9606 -3.77025 52.045 1.07224 57.0176C8.73248 64.9269 15.7346 67.9794 22.4282 67.8786C30.3701 67.7592 37.7913 63.1008 44.4206 59.6184C49.2638 57.2547 53.0791 54.3539 56.5774 51.3828C62.9868 45.9398 67.911 39.7293 75.4129 34.0639C77.9977 32.1119 82.0027 30.2794 83.0756 33.3244C83.8707 35.5811 83.7265 38.9581 83.0563 40.8615Z" fill="#FECD62"/>
<path d="M830.5 201V428M944 314.5H717" stroke="#FECD62" stroke-width="38" stroke-linecap="round" stroke-linejoin="round"/>
<path d="M1335.91 272.117C1335.91 272.117 1346.28 254.902 1362.72 260.127" stroke="#070707" stroke-width="4" stroke-linecap="round" stroke-linejoin="round"/>
<path d="M1342.01 264.703C1342.01 264.703 1348.65 264.279 1347.2 267.556C1346.29 269.627 1338 268.277 1338 268.277C1338 268.277 1338.28 259.176 1341.93 259.253C1344.83 259.309 1342.01 264.703 1342.01 264.703Z" stroke="#070707" stroke-width="4" stroke-linecap="round" stroke-linejoin="round"/>
<path d="M1347.01 261.191C1347.01 261.191 1353.08 261.861 1350.88 263.803C1349.76 264.79 1342.91 263.982 1342.91 263.982C1342.91 263.982 1345.97 255.884 1348.95 255.633C1351.92 255.383 1347.01 261.191 1347.01 261.191Z" stroke="#070707" stroke-width="4" stroke-linecap="round" stroke-linejoin="round"/>
<path d="M1354.88 259.059C1354.88 259.059 1359.62 260.674 1357.97 262.239C1357.18 262.995 1350.76 259.969 1350.76 259.969C1350.76 259.969 1353.66 254.743 1356.48 255.587C1358.34 256.16 1354.88 259.059 1354.88 259.059Z" stroke="#070707" stroke-width="4" stroke-linecap="round" stroke-linejoin="round"/>
<path d="M1356.98 259.002C1356.98 259.002 1367.4 256.175 1366.85 260.536C1366.46 263.793 1356.98 259.002 1356.98 259.002Z" stroke="#070707" stroke-width="4" stroke-linecap="round" stroke-linejoin="round"/>
<path d="M1333.98 280.563C1333.98 280.563 1335.76 260.823 1319.1 256.282" stroke="#070707" stroke-width="4" stroke-linecap="round" stroke-linejoin="round"/>
<path d="M1331.38 265.603C1331.38 265.603 1325.99 262.898 1326.63 265.675C1326.96 267.091 1333.08 270.107 1333.08 270.107C1333.08 270.107 1335.4 261.779 1333.12 259.989C1330.85 258.2 1331.38 265.603 1331.38 265.603Z" stroke="#070707" stroke-width="4" stroke-linecap="round" stroke-linejoin="round"/>
<path d="M1326.18 259.616C1326.18 259.616 1321.32 258.404 1321.73 260.572C1321.93 261.625 1329.03 262.581 1329.03 262.581C1329.03 262.581 1329.78 256.722 1326.95 255.904C1325.08 255.362 1326.18 259.616 1326.18 259.616Z" stroke="#070707" stroke-width="4" stroke-linecap="round" stroke-linejoin="round"/>
<path d="M1324.47 258.435C1324.47 258.435 1317.59 250.505 1315.44 254.375C1313.81 257.295 1324.47 258.435 1324.47 258.435Z" stroke="#070707" stroke-width="4" stroke-linecap="round" stroke-linejoin="round"/>
<path d="M1333.01 271.115C1333.01 271.115 1343.11 252.376 1330.06 241.573" stroke="#070707" stroke-width="4" stroke-linecap="round" stroke-linejoin="round"/>
<path d="M1336.53 254.508C1336.53 254.508 1333.35 250.331 1332.68 253.097C1332.34 254.508 1336.53 259.698 1336.53 259.698C1336.53 259.698 1342.24 254.074 1340.27 250.321C1338.93 247.816 1336.53 254.508 1336.53 254.508Z" stroke="#070707" stroke-width="4" stroke-linecap="round" stroke-linejoin="round"/>
<path d="M1335 247.468C1335 247.468 1331.14 244.4 1330.53 246.542C1330.24 247.565 1336.24 251.287 1336.24 251.287C1336.24 251.287 1339.56 246.297 1337.37 244.421C1335.91 243.153 1335 247.468 1335 247.468Z" stroke="#070707" stroke-width="4" stroke-linecap="round" stroke-linejoin="round"/>
<path d="M1333.98 245.683C1333.98 245.683 1331.32 235.749 1327.63 238.382C1324.83 240.366 1333.98 245.683 1333.98 245.683Z" stroke="#070707" stroke-width="4" stroke-linecap="round" stroke-linejoin="round"/>
<path d="M1299.35 377.998C1298.37 377.745 1297.53 377.125 1297 376.267C1296.48 375.409 1296.3 374.381 1296.51 373.397L1318.94 278.196C1320.32 272.546 1326.49 269.192 1332.37 270.895L1335.34 271.759C1341.22 273.461 1344.35 279.51 1342.15 284.929L1304.4 375.697C1303.98 376.63 1303.24 377.379 1302.31 377.802C1301.38 378.226 1300.32 378.295 1299.35 377.998Z" fill="#E57B07" stroke="#070707" stroke-width="4" stroke-linecap="round" stroke-linejoin="round"/>
<path d="M1370.88 287.486C1370.88 287.486 1381.25 270.276 1397.69 275.496" stroke="#070707" stroke-width="4" stroke-linecap="round" stroke-linejoin="round"/>
<path d="M1376.97 280.073C1376.97 280.073 1383.62 279.648 1382.17 282.931C1381.26 284.976 1372.97 283.651 1372.97 283.651C1372.97 283.651 1373.24 274.551 1376.89 274.622C1379.8 274.684 1376.97 280.073 1376.97 280.073Z" stroke="#070707" stroke-width="4" stroke-linecap="round" stroke-linejoin="round"/>
<path d="M1381.98 276.56C1381.98 276.56 1388.04 277.235 1385.84 279.173C1384.73 280.159 1377.88 279.351 1377.88 279.351C1377.88 279.351 1380.95 271.253 1383.91 271.002C1386.88 270.752 1381.98 276.56 1381.98 276.56Z" stroke="#070707" stroke-width="4" stroke-linecap="round" stroke-linejoin="round"/>
<path d="M1389.85 274.428C1389.85 274.428 1394.58 276.044 1392.92 277.608C1392.13 278.37 1385.71 275.338 1385.71 275.338C1385.71 275.338 1388.61 270.113 1391.42 270.956C1393.31 271.498 1389.85 274.428 1389.85 274.428Z" stroke="#070707" stroke-width="4" stroke-linecap="round" stroke-linejoin="round"/>
<path d="M1391.97 274.377C1391.97 274.377 1402.39 271.544 1401.84 275.91C1401.43 279.167 1391.97 274.377 1391.97 274.377Z" stroke="#070707" stroke-width="4" stroke-linecap="round" stroke-linejoin="round"/>
<path d="M1368.93 295.937C1368.93 295.937 1370.73 276.192 1354.05 271.656" stroke="#070707" stroke-width="4" stroke-linecap="round" stroke-linejoin="round"/>
<path d="M1366.35 280.977C1366.35 280.977 1360.96 278.267 1361.6 281.049C1361.93 282.46 1368.05 285.477 1368.05 285.477C1368.05 285.477 1370.36 277.148 1368.09 275.363C1365.82 273.579 1366.35 280.977 1366.35 280.977Z" stroke="#070707" stroke-width="4" stroke-linecap="round" stroke-linejoin="round"/>
<path d="M1361.15 274.99C1361.15 274.99 1356.29 273.779 1356.7 275.946C1356.9 277 1363.99 277.951 1363.99 277.951C1363.99 277.951 1364.74 272.096 1361.92 271.273C1360.05 270.731 1361.15 274.99 1361.15 274.99Z" stroke="#070707" stroke-width="4" stroke-linecap="round" stroke-linejoin="round"/>
<path d="M1359.44 273.804C1359.44 273.804 1352.56 265.874 1350.4 269.744C1348.8 272.664 1359.44 273.804 1359.44 273.804Z" stroke="#070707" stroke-width="4" stroke-linecap="round" stroke-linejoin="round"/>
<path d="M1367.98 286.484C1367.98 286.484 1378.08 267.75 1365.03 256.947" stroke="#070707" stroke-width="4" stroke-linecap="round" stroke-linejoin="round"/>
<path d="M1371.48 269.877C1371.48 269.877 1368.3 265.7 1367.63 268.471C1367.29 269.877 1371.47 275.072 1371.47 275.072C1371.47 275.072 1377.18 269.448 1375.21 265.69C1373.9 263.185 1371.48 269.877 1371.48 269.877Z" stroke="#070707" stroke-width="4" stroke-linecap="round" stroke-linejoin="round"/>
<path d="M1369.95 262.806C1369.95 262.806 1366.09 259.739 1365.49 261.881C1365.19 262.903 1371.19 266.631 1371.19 266.631C1371.19 266.631 1374.51 261.635 1372.32 259.759C1370.87 258.522 1369.95 262.806 1369.95 262.806Z" stroke="#070707" stroke-width="4" stroke-linecap="round" stroke-linejoin="round"/>
<path d="M1368.93 261.053C1368.93 261.053 1366.28 251.118 1362.59 253.751C1359.8 255.74 1368.93 261.053 1368.93 261.053Z" stroke="#070707" stroke-width="4" stroke-linecap="round" stroke-linejoin="round"/>
<path d="M1334.31 393.367C1333.34 393.115 1332.5 392.495 1331.97 391.637C1331.44 390.779 1331.27 389.749 1331.49 388.766L1353.92 293.58C1355.3 287.931 1361.47 284.577 1367.35 286.284L1370.32 287.148C1376.2 288.851 1379.33 294.899 1377.13 300.314L1339.38 391.066C1338.96 392.002 1338.22 392.753 1337.28 393.177C1336.35 393.601 1335.29 393.668 1334.31 393.367Z" fill="#E57B07" stroke="#070707" stroke-width="4" stroke-linecap="round" stroke-linejoin="round"/>
<path d="M1246.5 271.877L1244.1 273.159L1316.43 408.391L1318.83 407.108L1246.5 271.877Z" fill="#FEBD2F" stroke="#070707" stroke-width="4" stroke-linecap="round" stroke-linejoin="round"/>
<path d="M1250.63 269.666L1248.24 270.949L1320.56 406.18L1322.96 404.897L1250.63 269.666Z" fill="#FEBD2F" stroke="#070707" stroke-width="4" stroke-linecap="round" stroke-linejoin="round"/>
<path d="M1258.91 265.237L1256.51 266.52L1328.84 401.752L1331.24 400.469L1258.91 265.237Z" fill="#FEBD2F" stroke="#070707" stroke-width="4" stroke-linecap="round" stroke-linejoin="round"/>
<path d="M1267.18 260.811L1264.78 262.094L1337.11 397.325L1339.51 396.043L1267.18 260.811Z" fill="#FEBD2F" stroke="#070707" stroke-width="4" stroke-linecap="round" stroke-linejoin="round"/>
<path d="M1254.77 267.45L1252.37 268.733L1324.7 403.965L1327.1 402.682L1254.77 267.45Z" fill="#FEBD2F" stroke="#070707" stroke-width="4" stroke-linecap="round" stroke-linejoin="round"/>
<path d="M1263.04 263.021L1260.65 264.304L1332.97 399.536L1335.37 398.253L1263.04 263.021Z" fill="#FEBD2F" stroke="#070707" stroke-width="4" stroke-linecap="round" stroke-linejoin="round"/>
<path d="M1271.33 258.602L1268.93 259.885L1341.26 395.117L1343.65 393.834L1271.33 258.602Z" fill="#FEBD2F" stroke="#070707" stroke-width="4" stroke-linecap="round" stroke-linejoin="round"/>
<path d="M1277.53 268.553L1275.13 269.836L1347.46 405.068L1349.86 403.785L1277.53 268.553Z" fill="#FEBD2F" stroke="#070707" stroke-width="4" stroke-linecap="round" stroke-linejoin="round"/>
<path d="M1281.66 266.343L1279.27 267.626L1351.59 402.857L1353.99 401.574L1281.66 266.343Z" fill="#FEBD2F" stroke="#070707" stroke-width="4" stroke-linecap="round" stroke-linejoin="round"/>
<path d="M1285.8 264.131L1283.4 265.414L1355.73 400.646L1358.13 399.363L1285.8 264.131Z" fill="#FEBD2F" stroke="#070707" stroke-width="4" stroke-linecap="round" stroke-linejoin="round"/>
<path d="M1289.94 261.919L1287.55 263.201L1359.87 398.433L1362.27 397.15L1289.94 261.919Z" fill="#FEBD2F" stroke="#070707" stroke-width="4" stroke-linecap="round" stroke-linejoin="round"/>
<path d="M1247.11 294.69H1405.2V411.589C1405.2 417.461 1402.86 423.092 1398.71 427.244C1394.56 431.395 1388.93 433.728 1383.06 433.728H1269.25C1263.38 433.728 1257.74 431.395 1253.59 427.244C1249.44 423.092 1247.11 417.461 1247.11 411.589V294.69Z" fill="#FEBD2F" stroke="#070707" stroke-width="4" stroke-linecap="round" stroke-linejoin="round"/>
<path d="M1405.2 306.265H1423.64L1443.48 293.933C1444 293.53 1444.38 292.968 1444.55 292.333C1444.73 291.697 1444.7 291.021 1444.46 290.405C1443.62 288.273 1440.72 287.588 1438.84 289.076L1421.05 299.767H1405.2V306.265Z" fill="#FEBD2F" stroke="#070707" stroke-width="4" stroke-linecap="round" stroke-linejoin="round"/>
<path d="M1247.1 306.265H1228.65L1208.81 293.918C1208.29 293.514 1207.91 292.953 1207.74 292.317C1207.56 291.682 1207.59 291.006 1207.83 290.39C1208.67 288.258 1211.58 287.573 1213.45 289.061L1231.21 299.752H1247.06L1247.1 306.265Z" fill="#FEBD2F" stroke="#070707" stroke-width="4" stroke-linecap="round" stroke-linejoin="round"/>
<path d="M1405.2 260.148L1258.12 202.189C1269.22 194.923 1302.41 199.264 1338.61 213.524C1374.81 227.783 1402.04 247.263 1405.2 260.148Z" fill="#FEBD2F" stroke="#070707" stroke-width="4" stroke-linecap="round" stroke-linejoin="round"/>
<path d="M1355.87 205.139L1333.32 196.253C1331.14 195.394 1328.84 196.825 1328.91 199.014L1329.24 209.884L1349.55 217.89L1357.22 210.165C1358.75 208.61 1358.05 205.998 1355.87 205.139Z" fill="#FEBD2F" stroke="#070707" stroke-width="4" stroke-linecap="round" stroke-linejoin="round"/>
<path d="M1479.11 304.966H1476.25C1476.49 305.444 1476.61 305.968 1476.61 306.5V309.113C1476.61 309.744 1476.36 310.349 1475.92 310.796C1475.47 311.243 1474.87 311.494 1474.24 311.495H1459.78C1459.47 311.495 1459.16 311.434 1458.87 311.314C1458.58 311.194 1458.32 311.019 1458.1 310.798C1457.88 310.576 1457.7 310.314 1457.58 310.025C1457.46 309.736 1457.4 309.426 1457.4 309.113V306.521C1457.4 305.989 1457.53 305.464 1457.76 304.987H1454.78V299.992C1454.78 299.531 1454.87 299.075 1455.05 298.65C1455.22 298.224 1455.48 297.838 1455.8 297.512C1456.13 297.186 1456.52 296.928 1456.94 296.751C1457.37 296.575 1457.82 296.484 1458.28 296.484H1475.6C1476.06 296.484 1476.52 296.574 1476.94 296.75C1477.37 296.926 1477.76 297.184 1478.08 297.51C1478.41 297.836 1478.67 298.223 1478.84 298.649C1479.02 299.074 1479.11 299.531 1479.11 299.992V304.966Z" fill="#FEBD2F" stroke="#070707" stroke-width="4" stroke-linecap="round" stroke-linejoin="round"/>
<path d="M1490.52 372.277L1487.53 416.283C1487.43 418.131 1486.63 419.873 1485.29 421.155C1483.96 422.437 1482.19 423.164 1480.33 423.19H1453.55C1451.7 423.166 1449.93 422.439 1448.59 421.156C1447.26 419.874 1446.46 418.132 1446.36 416.283L1443.39 372.277H1490.52Z" fill="#FEBD2F" stroke="#070707" stroke-width="4" stroke-linecap="round" stroke-linejoin="round"/>
<path d="M1495.96 359.643L1491.71 420.414C1491.55 422.599 1490.57 424.642 1488.96 426.134C1487.36 427.626 1485.25 428.457 1483.06 428.462H1450.85C1448.65 428.457 1446.54 427.623 1444.94 426.126C1443.33 424.63 1442.36 422.582 1442.2 420.394L1437.92 359.643C1437.75 357.225 1438.2 354.802 1439.24 352.609C1440.27 350.416 1441.85 348.524 1443.82 347.117C1445.98 345.623 1447.73 343.631 1448.95 341.311C1450.17 338.991 1450.8 336.412 1450.81 333.793L1450.62 310.954C1450.59 310.18 1450.71 309.408 1450.98 308.683C1451.26 307.958 1451.67 307.296 1452.21 306.736C1452.74 306.177 1453.39 305.732 1454.1 305.427C1454.81 305.123 1455.58 304.966 1456.35 304.967H1477.53C1478.31 304.965 1479.08 305.121 1479.79 305.424C1480.5 305.728 1481.15 306.173 1481.68 306.733C1482.22 307.292 1482.64 307.955 1482.91 308.681C1483.18 309.406 1483.3 310.179 1483.27 310.954L1483.08 333.793C1483.09 336.412 1483.73 338.991 1484.94 341.31C1486.16 343.63 1487.92 345.622 1490.07 347.117C1492.04 348.526 1493.62 350.417 1494.65 352.61C1495.68 354.804 1496.14 357.225 1495.96 359.643Z" fill="#E57B07" stroke="#070707" stroke-width="4" stroke-linecap="round" stroke-linejoin="round"/>
<path d="M1481.83 396.522C1481.37 399.078 1474.86 402.243 1466.9 402.243C1458.94 402.243 1452.42 399.053 1451.96 396.522L1452.02 364.531C1452.84 362.107 1459.18 359.055 1466.9 359.055C1474.61 359.055 1480.95 362.123 1481.77 364.531L1481.83 396.522Z" fill="#FEBD2F" stroke="#070707" stroke-width="4" stroke-linecap="round" stroke-linejoin="round"/>
<path d="M1201.6 347.536V348.63C1201.6 349.231 1201.84 349.808 1202.26 350.233C1202.69 350.659 1203.26 350.899 1203.86 350.9V354.326C1203.87 354.95 1204.11 355.548 1204.56 355.989C1205 356.43 1205.6 356.677 1206.22 356.677H1210.76C1211.07 356.678 1211.37 356.618 1211.66 356.5C1211.94 356.382 1212.2 356.209 1212.42 355.99C1212.64 355.772 1212.82 355.512 1212.93 355.227C1213.05 354.941 1213.11 354.635 1213.11 354.326V350.9C1213.41 350.9 1213.71 350.841 1213.98 350.727C1214.26 350.613 1214.51 350.446 1214.72 350.235C1214.93 350.024 1215.09 349.774 1215.21 349.498C1215.32 349.223 1215.38 348.928 1215.38 348.63V347.536C1215.38 346.935 1215.14 346.359 1214.71 345.934C1214.29 345.509 1213.71 345.271 1213.11 345.271H1203.86C1203.26 345.272 1202.69 345.511 1202.26 345.936C1201.84 346.36 1201.6 346.935 1201.6 347.536Z" fill="#FEBD2F" stroke="#070707" stroke-width="4" stroke-linecap="round" stroke-linejoin="round"/>
<path d="M1186 406.006C1186 411.819 1189.52 420.67 1192.73 425.874C1193.1 426.465 1193.61 426.952 1194.21 427.291C1194.82 427.629 1195.5 427.807 1196.19 427.807H1219.02C1219.73 427.804 1220.42 427.621 1221.03 427.274C1221.64 426.928 1222.15 426.43 1222.51 425.828C1225.72 420.47 1229.23 411.001 1229.23 405.188C1229.23 393.531 1223.94 384.87 1214.88 381.362V358.416L1219.8 350.89H1200.37V381.352C1191.3 384.87 1186 394.354 1186 406.006Z" fill="#FEBD2F" stroke="#070707" stroke-width="4" stroke-linecap="round" stroke-linejoin="round"/>
<path d="M1200.36 356.698H1193.88C1192.86 356.699 1191.85 356.947 1190.94 357.42C1190.04 357.893 1189.26 358.578 1188.67 359.416C1188.08 360.255 1187.7 361.222 1187.57 362.237C1187.44 363.252 1187.55 364.284 1187.9 365.247L1194.88 384.491" stroke="#070707" stroke-width="4" stroke-linecap="round" stroke-linejoin="round"/>
<path d="M1189.42 406.18C1189.42 411.073 1192.39 418.522 1195.09 422.904C1195.4 423.401 1195.82 423.811 1196.33 424.096C1196.84 424.38 1197.42 424.53 1198 424.53H1217.22C1217.81 424.528 1218.39 424.374 1218.91 424.082C1219.42 423.79 1219.85 423.37 1220.15 422.863C1222.85 418.353 1225.81 410.377 1225.81 405.479C1225.85 402.526 1225.38 399.588 1224.44 396.788H1190.97C1189.91 399.805 1189.39 402.983 1189.42 406.18Z" fill="#FEBD2F" stroke="#070707" stroke-width="4" stroke-linecap="round" stroke-linejoin="round"/>
<path d="M1443.62 370.211V425.547C1443.62 425.898 1443.56 426.246 1443.42 426.57C1443.29 426.894 1443.09 427.188 1442.84 427.436C1442.59 427.684 1442.3 427.881 1441.97 428.014C1441.65 428.148 1441.3 428.217 1440.95 428.216H1419.87C1419.52 428.217 1419.17 428.148 1418.85 428.014C1418.52 427.88 1418.23 427.684 1417.98 427.436C1417.73 427.188 1417.54 426.893 1417.4 426.569C1417.27 426.245 1417.2 425.898 1417.2 425.547V370.211C1417.2 368.352 1417.84 366.551 1419.03 365.116C1420.21 363.682 1421.85 362.705 1423.68 362.353V349.151H1437.15V362.353C1438.97 362.706 1440.62 363.683 1441.8 365.117C1442.98 366.551 1443.63 368.353 1443.62 370.211Z" fill="#FEBD2F" stroke="#070707" stroke-width="4" stroke-linecap="round" stroke-linejoin="round"/>
<path d="M1439.74 378.167V421.958C1439.74 423.563 1438.6 424.862 1437.19 424.862H1423.62C1422.22 424.862 1421.07 423.563 1421.07 421.958V378.167H1439.74Z" fill="#EFAF00" stroke="black" stroke-width="4" stroke-linecap="round" stroke-linejoin="round"/>
<path d="M1438.93 347.086H1421.9C1421.22 347.086 1420.67 347.635 1420.67 348.313V350.143C1420.67 350.821 1421.22 351.37 1421.9 351.37H1438.93C1439.61 351.37 1440.16 350.821 1440.16 350.143V348.313C1440.16 347.635 1439.61 347.086 1438.93 347.086Z" fill="#FEBD2F" stroke="#070707" stroke-width="4" stroke-linecap="round" stroke-linejoin="round"/>
</g>
</svg>
