<svg width="1920" height="878" viewBox="0 0 1920 878" fill="none" xmlns="http://www.w3.org/2000/svg">
<mask id="mask0_2_436" style="mask-type:alpha" maskUnits="userSpaceOnUse" x="0" y="0" width="1920" height="878">
<rect width="1920" height="877.277" fill="#FEBD2F"/>
</mask>
<g mask="url(#mask0_2_436)">
<rect width="1920" height="891.574" fill="#FEBD2F"/>
<path fill-rule="evenodd" clip-rule="evenodd" d="M379.071 773.378C321.053 771.091 288.41 770.017 228.799 786.423C113.585 818.137 15.2805 933.575 127.312 997.77C186.488 1031.68 250.307 1033.98 322.651 1040.02C360.803 1043.21 441.522 1034.26 475.817 1024.43C516.672 1012.73 552.755 1002.48 580.091 976.895C692.624 871.579 517 773.378 379.071 773.378Z" fill="#F8A635"/>
<path fill-rule="evenodd" clip-rule="evenodd" d="M-116.163 54.185C-119.777 54.355 -133.036 76.7304 -137.514 87.284C-145.427 105.936 -148.462 116.986 -154.189 131.818C-167.395 166.02 -175.489 202.883 -185.334 238.387C-186.981 244.323 -195.807 268.45 -192.98 273.617C-187.204 284.178 -167.341 290.092 -156.416 295.044C-121.196 311.016 -83.2873 324.877 -46.0085 335.66C-23.4789 342.176 -1.34069 351.907 21.5898 356.298C30.6837 358.037 41.761 360.013 50.0258 355.298C54.0676 352.992 57.4812 340.239 59.0407 336.199C67.2079 315.051 75.658 293.841 85.5109 273.316C98.084 247.125 106.897 218.908 117.628 191.988C122.212 180.488 131.299 161.639 128.977 149.149C128.14 144.648 121.242 142.667 117.934 141.07C101.906 133.341 63.9762 117.672 47.1932 111.467C-2.59776 93.0626 -31.5936 83.3805 -80.4031 63.0852C-89.548 59.2836 -106.588 53.7376 -116.163 54.185Z" fill="#F8A635"/>
<path fill-rule="evenodd" clip-rule="evenodd" d="M638.086 593.709C637.647 594.21 638.925 598.823 639.754 600.763C641.22 604.192 642.299 606.004 643.536 608.655C646.39 614.769 650.248 620.544 653.703 626.379C654.281 627.354 656.356 631.602 657.402 631.886C659.54 632.467 662.858 630.586 664.909 629.768C671.52 627.132 678.193 623.87 684.378 620.299C688.116 618.141 692.231 616.445 695.738 613.963C697.129 612.978 698.803 611.76 699.232 610.062C699.441 609.232 698.185 607.153 697.848 606.431C696.083 602.65 694.347 598.824 692.88 594.899C691.009 589.89 688.389 585.122 686.186 580.265C685.245 578.19 683.903 574.581 681.95 573.296C681.246 572.833 680.103 573.495 679.47 573.731C676.4 574.871 669.484 577.905 666.52 579.341C657.728 583.6 652.745 586.212 643.827 590.099C642.157 590.828 639.248 592.381 638.086 593.709Z" fill="#F8A635"/>
<path fill-rule="evenodd" clip-rule="evenodd" d="M697.243 584.504C697.098 584.67 697.52 586.191 697.793 586.831C698.276 587.961 698.632 588.559 699.04 589.433C699.981 591.449 701.254 593.354 702.393 595.278C702.583 595.599 703.268 597 703.613 597.094C704.318 597.285 705.412 596.665 706.088 596.395C708.268 595.526 710.469 594.451 712.509 593.273C713.741 592.561 715.098 592.002 716.255 591.183C716.713 590.859 717.265 590.457 717.407 589.897C717.476 589.623 717.061 588.938 716.95 588.7C716.368 587.453 715.796 586.191 715.312 584.897C714.695 583.245 713.831 581.673 713.105 580.071C712.794 579.387 712.352 578.197 711.708 577.773C711.476 577.62 711.099 577.839 710.89 577.916C709.878 578.292 707.597 579.293 706.619 579.766C703.72 581.171 702.077 582.032 699.136 583.314C698.585 583.554 697.626 584.067 697.243 584.504Z" fill="#F8A635"/>
<path fill-rule="evenodd" clip-rule="evenodd" d="M679.243 628.504C679.098 628.67 679.52 630.191 679.793 630.831C680.276 631.961 680.632 632.559 681.04 633.433C681.981 635.449 683.254 637.354 684.393 639.278C684.583 639.599 685.268 641 685.613 641.094C686.318 641.285 687.412 640.665 688.088 640.395C690.268 639.526 692.469 638.451 694.509 637.273C695.741 636.561 697.098 636.002 698.255 635.183C698.713 634.859 699.265 634.457 699.407 633.897C699.476 633.623 699.061 632.938 698.95 632.7C698.368 631.453 697.796 630.191 697.312 628.897C696.695 627.245 695.831 625.673 695.105 624.071C694.794 623.387 694.352 622.197 693.708 621.773C693.476 621.62 693.099 621.839 692.89 621.916C691.878 622.292 689.597 623.293 688.619 623.766C685.72 625.171 684.077 626.032 681.136 627.314C680.585 627.554 679.626 628.067 679.243 628.504Z" fill="#F8A635"/>
<path fill-rule="evenodd" clip-rule="evenodd" d="M634.239 235.345C627.173 248.081 616.048 261.613 607.193 273.193C598.213 284.849 573.367 320.294 587.33 332.063C597.8 340.888 613.308 339.371 621.94 328.677C625.687 322.6 628.855 317.256 631.255 312.177C634.29 305.751 636.411 300.518 638.14 296.488C642.954 285.432 648.469 274.595 653.121 263.298C655.323 257.948 657.495 252.73 659.122 247.262C661.334 239.828 671.881 223.871 670.458 215.631C668.893 206.574 665.22 194.416 654.455 196.096C626.797 200.413 601.47 216.674 575.607 227.427C566.967 231.019 563.215 223.512 567.852 217.101C575.887 205.99 586.265 191.931 604.405 176.734C612.73 168.222 622.127 156.926 615.802 147.402C609.477 137.879 597.752 136.92 588.435 143.379C552.959 173.221 538.646 195.981 533.676 212.827C525.658 240.01 538.039 254.742 542.794 258.422C550.31 264.279 557.637 266.079 564.97 265.232C573.67 264.226 582.297 259.418 589.928 255.701C595.484 253.138 599.974 250.236 604.125 247.31C613.001 241.055 619.777 234.14 631.291 227.606C636.269 225.628 635.901 232.349 634.239 235.345Z" fill="#FECD62"/>
<path d="M224.54 396.921C226.203 387.865 231.826 371.038 234.603 362.901C237.38 354.764 213.964 351.258 213.964 351.258C197.997 346.986 179.485 344.945 170.052 344.172C166.851 344.06 164.342 341.315 164.453 338.046C164.563 334.778 167.251 332.216 170.451 332.329C182.042 332.204 206.589 332.651 225.268 337.207C236.297 339.897 245.223 344.53 250.045 350.157C252.638 353.207 253.884 357.34 253.842 362.387C253.779 369.973 249.43 381.237 246.064 392.555C244.872 396.563 243.777 400.567 243.426 404.395C243.158 407.319 243.135 410.121 244.444 412.489C247.449 417.967 252.886 420.01 259.013 421.162C269.937 423.216 282.858 422.496 294.286 423.642C305.11 424.726 314.749 427.472 321.581 433.916C328.157 439.891 329.641 446.798 328.51 454.458C327.49 461.374 323.496 469.266 319.903 477.664C316.647 485.27 313.433 493.502 317.698 501.93C320.994 508.687 326.479 511.984 332.745 513.973C343.867 517.503 357.211 517.374 369.308 519.09C380.228 520.638 390.236 523.613 397.907 529.912C401.574 532.922 403.855 538.33 403.392 546.124C402.934 553.847 399.468 565.819 402.387 577.444C403.92 583.548 407.54 589.472 414.919 594.359C419.149 597.124 420.385 602.877 417.678 607.196C414.97 611.516 409.338 612.779 405.108 610.013C392.89 602.13 387.102 592.257 384.462 582.257C381.309 570.314 383.14 557.996 384.14 548.764C385.273 538.327 368.843 538.726 360.683 537.94C349.201 536.834 337.22 536.264 326.944 532.984C315.678 529.386 306.248 522.836 300.419 510.631C297.503 504.331 296.519 498.164 296.934 492.134C297.793 479.669 305.074 467.9 309.534 457.6C311.34 453.429 313.485 449.711 310.256 446.621C303.837 440.775 293.581 440.906 283.063 440.834C270.02 440.746 256.497 441.095 245.901 437.275C238.34 434.55 232.124 429.848 227.731 422.421C223.488 415.176 222.822 406.276 224.54 396.921Z" fill="#FECD62"/>
</g>
</svg>
