<svg width="1920" height="1203" viewBox="0 0 1920 1203" fill="none" xmlns="http://www.w3.org/2000/svg">
<mask id="mask0_67_879" style="mask-type:alpha" maskUnits="userSpaceOnUse" x="0" y="0" width="1920" height="1203">
<path d="M0 0H1920V1203H0V0Z" fill="#FEBD2F"/>
</mask>
<g mask="url(#mask0_67_879)">
<path d="M0 0H1920V1203H0V0Z" fill="#FEBD2F"/>
<path fill-rule="evenodd" clip-rule="evenodd" d="M1807.07 1053.29C1749.05 1051.01 1716.41 1049.93 1656.8 1066.34C1541.58 1098.05 1443.28 1213.49 1555.31 1277.68C1614.49 1311.59 1678.31 1313.9 1750.65 1319.94C1788.8 1323.13 1869.52 1314.17 1903.82 1304.35C1944.67 1292.64 1980.76 1282.39 2008.09 1256.81C2120.62 1151.49 1945 1053.29 1807.07 1053.29Z" fill="#F8A635"/>
<path fill-rule="evenodd" clip-rule="evenodd" d="M1739.84 -170.794C1736.22 -170.624 1722.96 -148.248 1718.49 -137.695C1710.57 -119.042 1707.54 -107.992 1701.81 -93.1603C1688.6 -58.9592 1680.51 -22.0961 1670.67 13.4084C1669.02 19.3446 1660.19 43.4709 1663.02 48.6386C1668.8 59.1989 1688.66 65.1129 1699.58 70.0655C1734.8 86.0371 1772.71 99.8987 1809.99 110.681C1832.52 117.197 1854.66 126.928 1877.59 131.319C1886.68 133.059 1897.76 135.034 1906.03 130.319C1910.07 128.013 1913.48 115.26 1915.04 111.22C1923.21 90.0722 1931.66 68.8619 1941.51 48.3369C1954.08 22.1461 1962.9 -6.07125 1973.63 -32.9906C1978.21 -44.4912 1987.3 -63.3398 1984.98 -75.8302C1984.14 -80.3304 1977.24 -82.3121 1973.93 -83.9085C1957.91 -91.6374 1919.98 -107.306 1903.19 -113.511C1853.4 -131.916 1824.41 -141.598 1775.6 -161.894C1766.45 -165.695 1749.41 -171.241 1739.84 -170.794Z" fill="#F8A635"/>
<path fill-rule="evenodd" clip-rule="evenodd" d="M-116.163 54.185C-119.777 54.355 -133.036 76.7304 -137.514 87.284C-145.427 105.936 -148.462 116.986 -154.189 131.818C-167.395 166.02 -175.489 202.883 -185.334 238.387C-186.981 244.323 -195.807 268.45 -192.98 273.617C-187.204 284.178 -167.341 290.092 -156.416 295.044C-121.196 311.016 -83.2873 324.877 -46.0085 335.66C-23.4789 342.176 -1.34069 351.907 21.5898 356.298C30.6837 358.037 41.761 360.013 50.0258 355.298C54.0676 352.992 57.4812 340.239 59.0407 336.199C67.2079 315.051 75.658 293.841 85.5109 273.316C98.084 247.125 106.897 218.908 117.628 191.988C122.212 180.488 131.299 161.639 128.977 149.149C128.14 144.648 121.242 142.667 117.934 141.07C101.906 133.341 63.9762 117.672 47.1932 111.467C-2.59776 93.0626 -31.5936 83.3805 -80.4031 63.0852C-89.548 59.2836 -106.588 53.7376 -116.163 54.185Z" fill="#F8A635"/>
<path fill-rule="evenodd" clip-rule="evenodd" d="M71.4699 1369.74C74.2586 1371.57 96.2571 1362.04 105.308 1356.59C121.303 1346.95 129.545 1340.34 141.843 1332.37C170.199 1313.99 196.179 1290.86 222.732 1269.69C227.172 1266.15 246.809 1252.92 247.495 1247.53C248.897 1236.53 237.273 1221.37 231.798 1211.76C214.153 1180.79 193.361 1149.94 171.373 1121.73C158.084 1104.68 146.826 1085.44 132.088 1069.76C126.243 1063.54 119.045 1056.08 110.326 1055.12C106.062 1054.66 96.6165 1062.33 93.2674 1064.5C75.7325 1075.87 57.953 1087.12 39.4972 1097.11C15.9466 1109.86 -5.89421 1126.15 -28.4644 1140.43C-38.1064 1146.54 -55.0834 1155.69 -60.1071 1166.26C-61.9169 1170.08 -57.8411 1175.29 -56.2353 1178.27C-48.4548 1192.7 -28.624 1224.92 -19.4555 1238.62C7.74718 1279.29 24.1492 1302.2 49.5968 1343.75C54.3651 1351.54 64.0815 1364.89 71.4699 1369.74Z" fill="#F8A635"/>
<path fill-rule="evenodd" clip-rule="evenodd" d="M-15.0784 1082.66C-14.1588 1083.26 -6.90448 1080.12 -3.91973 1078.32C1.35484 1075.14 4.07277 1072.96 8.12807 1070.33C17.4789 1064.27 26.0464 1056.64 34.8027 1049.66C36.2667 1048.5 42.7425 1044.13 42.9687 1042.36C43.4309 1038.73 39.5976 1033.73 37.7924 1030.56C31.9736 1020.35 25.1171 1010.17 17.8661 1000.87C13.4839 995.248 9.77141 988.905 4.91147 983.734C2.9838 981.683 0.61003 979.221 -2.26498 978.907C-3.671 978.754 -6.78596 981.283 -7.89037 981.999C-13.6728 985.747 -19.5358 989.46 -25.6219 992.753C-33.3881 996.956 -40.5905 1002.33 -48.0333 1007.04C-51.2129 1009.05 -56.8114 1012.07 -58.468 1015.56C-59.0648 1016.81 -57.7207 1018.53 -57.1912 1019.52C-54.6255 1024.28 -48.086 1034.9 -45.0625 1039.42C-36.092 1052.83 -30.6832 1060.39 -22.2914 1074.09C-20.719 1076.65 -17.5149 1081.06 -15.0784 1082.66Z" fill="#F8A635"/>
<path fill-rule="evenodd" clip-rule="evenodd" d="M215.622 1141.53C216.541 1142.13 223.796 1138.99 226.78 1137.19C232.055 1134.01 234.773 1131.84 238.828 1129.21C248.179 1123.15 256.747 1115.52 265.503 1108.54C266.967 1107.37 273.443 1103.01 273.669 1101.23C274.131 1097.6 270.298 1092.6 268.493 1089.44C262.674 1079.22 255.817 1069.05 248.566 1059.75C244.184 1054.12 240.472 1047.78 235.612 1042.61C233.684 1040.56 231.31 1038.1 228.435 1037.78C227.029 1037.63 223.914 1040.16 222.81 1040.87C217.027 1044.62 211.164 1048.33 205.078 1051.63C197.312 1055.83 190.11 1061.2 182.667 1065.91C179.487 1067.93 173.889 1070.94 172.232 1074.43C171.635 1075.69 172.979 1077.41 173.509 1078.39C176.075 1083.15 182.614 1093.77 185.638 1098.29C194.608 1111.71 200.017 1119.26 208.409 1132.96C209.981 1135.53 213.185 1139.93 215.622 1141.53Z" fill="#F8A635"/>
<path fill-rule="evenodd" clip-rule="evenodd" d="M844.202 14.7499C871.474 17.5969 906.696 16.1566 935.69 15.7455C964.991 15.249 1049.84 16.7762 1039.64 44.6916C1032 65.6235 1003.42 83.3813 975.858 84.3218C962.197 83.4277 950.402 82.4848 940.25 80.8336C927.404 78.7439 917.551 76.6085 909.797 75.0824C888.403 70.9839 866.057 67.9491 844.657 63.4299C834.524 61.2899 824.602 59.2318 815.321 56.274C802.707 52.2533 765.612 50.7789 758.323 41.54C750.31 31.3857 742.271 15.8143 762.852 4.0569C815.731 -26.1515 878.713 -42.6363 936.104 -64.7846C955.278 -72.1842 952.878 -83.6296 937.284 -83.7303C910.261 -83.9047 875.704 -83.8644 826.394 -75.2822C801.944 -72.7376 772.35 -71.4002 772.009 -87.8522C771.668 -104.304 790.784 -119.642 814.517 -125.274C911.096 -141.95 962.743 -138.945 991.256 -129.779C1037.26 -114.99 1033.31 -86.3364 1029.45 -77.1288C1023.39 -62.5358 1012.87 -51.8612 999.201 -43.5825C982.984 -33.76 962.396 -27.4817 944.817 -21.4405C932.189 -16.9118 921 -14.0068 910.369 -11.5417C887.64 -6.27093 867.755 -4.18797 840.139 4.08585C829.2 8.43247 837.787 14.0808 844.202 14.7499Z" fill="#FECD62"/>
<path d="M1558.71 363.407C1560.37 354.35 1565.99 337.524 1568.77 329.387C1571.55 321.25 1548.13 317.744 1548.13 317.744C1532.17 313.472 1513.65 311.43 1504.22 310.658C1501.02 310.545 1498.51 307.8 1498.62 304.532C1498.73 301.264 1501.42 298.702 1504.62 298.814C1516.21 298.69 1540.76 299.137 1559.44 303.692C1570.46 306.382 1579.39 311.016 1584.21 316.643C1586.81 319.692 1588.05 323.825 1588.01 328.872C1587.95 336.459 1583.6 347.722 1580.23 359.041C1579.04 363.048 1577.95 367.052 1577.59 370.88C1577.33 373.805 1577.3 376.607 1578.61 378.974C1581.62 384.453 1587.05 386.496 1593.18 387.647C1604.1 389.701 1617.03 388.982 1628.45 390.127C1639.28 391.211 1648.92 393.958 1655.75 400.401C1662.33 406.377 1663.81 413.283 1662.68 420.944C1661.66 427.859 1657.66 435.752 1654.07 444.15C1650.82 451.755 1647.6 459.988 1651.87 468.416C1655.16 475.173 1660.65 478.47 1666.91 480.458C1678.04 483.989 1691.38 483.86 1703.48 485.575C1714.4 487.124 1724.4 490.099 1732.08 496.398C1735.74 499.408 1738.02 504.816 1737.56 512.61C1737.1 520.333 1733.64 532.305 1736.55 543.929C1738.09 550.034 1741.71 555.957 1749.09 560.845C1753.32 563.61 1754.55 569.362 1751.85 573.682C1749.14 578.002 1743.51 579.264 1739.28 576.499C1727.06 568.616 1721.27 558.742 1718.63 548.743C1715.48 536.8 1717.31 524.482 1718.31 515.25C1719.44 504.813 1703.01 505.212 1694.85 504.425C1683.37 503.319 1671.39 502.75 1661.11 499.469C1649.85 495.872 1640.42 489.322 1634.59 477.117C1631.67 470.817 1630.69 464.65 1631.1 458.619C1631.96 446.155 1639.24 434.385 1643.7 424.086C1645.51 419.914 1647.65 416.197 1644.42 413.107C1638.01 407.26 1627.75 407.392 1617.23 407.32C1604.19 407.232 1590.66 407.58 1580.07 403.761C1572.51 401.036 1566.29 396.334 1561.9 388.907C1557.66 381.661 1556.99 372.762 1558.71 363.407Z" fill="#FECD62"/>
<path d="M1547.08 646.15C1512.34 643.913 1475.09 593.746 1463.14 576.257C1457.58 579.273 1449.34 583.338 1442.56 583.567C1440.15 583.65 1439.4 578.182 1439.4 578.182C1438.08 577.696 1437.07 575.403 1437.14 573.082C1437.14 573.082 1434.47 571.741 1434.63 568.01C1433.24 566.979 1432.25 565.509 1431.81 563.841C1430.99 560.262 1439.88 556.649 1441.01 555.982C1443.2 554.683 1440.23 554.898 1438.69 553.071C1434.38 547.957 1437.18 545.483 1437.18 545.483C1437.18 545.483 1441.86 548.666 1446.21 549.486C1450.56 550.306 1456.14 551.959 1457.57 552.814C1461.18 555.139 1464.51 557.871 1467.49 560.957C1484.94 572.978 1530.42 599.138 1530.42 599.138C1532.24 509.422 1549.82 506.135 1561.1 503.148C1561.12 503.148 1589.21 648.867 1547.08 646.15Z" fill="#C48270" stroke="#0D0D0D" stroke-width="4" stroke-linecap="round" stroke-linejoin="round"/>
<path d="M1422.58 561.909L1445.34 597.45C1445.89 598.297 1446.26 599.244 1446.44 600.237C1446.62 601.229 1446.6 602.247 1446.38 603.232C1446.17 604.217 1445.76 605.15 1445.18 605.976C1444.6 606.802 1443.87 607.505 1443.01 608.046L1420.46 622.498C1419.61 623.046 1418.66 623.42 1417.66 623.6C1416.67 623.779 1415.65 623.76 1414.66 623.544C1413.67 623.328 1412.73 622.918 1411.9 622.339C1411.07 621.76 1410.37 621.023 1409.82 620.171L1391.11 590.946L1384.16 586.506C1385.55 587.805 1397.05 582.157 1406.61 576.035C1416.16 569.914 1423.17 563.695 1422.59 561.916L1422.58 561.909Z" stroke="#0D0D0D" stroke-width="4" stroke-linecap="round" stroke-linejoin="round"/>
<path d="M1422.5 561.791C1422.53 561.829 1422.55 561.872 1422.56 561.916C1423.17 563.695 1416.17 569.914 1406.58 576.035C1396.99 582.157 1385.5 587.805 1384.16 586.506C1384.13 586.476 1384.1 586.441 1384.07 586.402C1383.05 584.811 1393.1 576.542 1402.92 570.268C1412.73 563.994 1421.48 560.2 1422.5 561.791Z" stroke="#0D0D0D" stroke-width="4" stroke-linecap="round" stroke-linejoin="round"/>
<path d="M1428.4 558.171C1432.57 555.517 1440.08 558.171 1440.97 563.035L1445.34 597.471L1426.3 567.781C1425.81 567.012 1425.47 566.154 1425.31 565.255C1425.15 564.355 1425.16 563.433 1425.36 562.541C1425.55 561.648 1425.92 560.803 1426.45 560.053C1426.97 559.303 1427.63 558.664 1428.4 558.171Z" stroke="#0D0D0D" stroke-width="4" stroke-linecap="round" stroke-linejoin="round"/>
<path d="M1452.98 574.416C1453.95 578.106 1450.54 580.037 1442.1 582.754C1442.1 582.754 1441.78 582.983 1438.32 575.111C1433.23 563.507 1433.83 561.555 1433.83 561.555C1438.46 559.853 1443.06 558.776 1444.72 558.268C1448.18 557.247 1452.35 572.033 1452.98 574.416Z" fill="#C48270"/>
<path d="M1449.13 574.416C1449.13 574.416 1452.01 572.498 1452.98 574.416C1454.71 577.814 1450.15 579.898 1441.72 582.636" fill="#C48270"/>
<path d="M1449.13 574.416C1449.13 574.416 1452.01 572.498 1452.98 574.416C1454.71 577.814 1450.15 579.898 1441.72 582.636" stroke="#0D0D0D" stroke-width="4" stroke-linecap="round" stroke-linejoin="round"/>
<path d="M1439.49 577.724C1448.98 575.007 1451.53 573.2 1451.53 573.2C1452.87 572.672 1451.86 567.058 1449.14 568.142" fill="#C48270"/>
<path d="M1439.49 577.724C1448.98 575.007 1451.53 573.2 1451.53 573.2C1452.87 572.672 1451.86 567.058 1449.14 568.142" stroke="#0D0D0D" stroke-width="4" stroke-linecap="round" stroke-linejoin="round"/>
<path d="M1437.09 572.401C1447.09 569.351 1449.14 568.142 1449.14 568.142C1450.59 567.69 1449.77 562.132 1446.26 563.278" fill="#C48270"/>
<path d="M1437.09 572.401C1447.09 569.351 1449.14 568.142 1449.14 568.142C1450.59 567.69 1449.77 562.132 1446.26 563.278" stroke="#0D0D0D" stroke-width="4" stroke-linecap="round" stroke-linejoin="round"/>
<path d="M1433.83 561.569C1434.38 563.077 1443.06 558.789 1444.72 558.282C1447.07 557.587 1449.21 562.222 1446.26 563.257C1442.55 565.009 1438.69 566.405 1434.72 567.426" fill="#C48270"/>
<path d="M1433.83 561.569C1434.38 563.077 1443.06 558.789 1444.72 558.282C1447.07 557.587 1449.21 562.222 1446.26 563.257C1442.55 565.009 1438.69 566.405 1434.72 567.426" stroke="#0D0D0D" stroke-width="4" stroke-linecap="round" stroke-linejoin="round"/>
<path d="M1691.33 1189.49C1694.9 1194.83 1696.67 1195.15 1696.02 1201.14H1655.1C1655.1 1201.14 1655.42 1194.34 1662.04 1192.11C1668.67 1189.88 1676.82 1173.94 1675.14 1167.15C1669.81 1146.42 1662.5 1113.26 1656.49 1084.86C1676.6 1083.84 1691.72 1082.16 1702.57 1080.52C1700.19 1113.77 1693.4 1149.69 1688.07 1170.25C1687.75 1173.28 1687.75 1184.16 1691.33 1189.49Z" fill="#C48270" stroke="#0D0D0D" stroke-width="4" stroke-linecap="round" stroke-linejoin="round"/>
<path d="M1691.85 1190.03C1695.33 1193.58 1696.72 1196.29 1696.02 1201.15H1655.1C1655.1 1201.15 1653.29 1193.86 1664.66 1188.96C1668.6 1187.25 1688.07 1186.16 1691.85 1190.03Z" fill="#FEBD2F" stroke="#0D0D0D" stroke-width="4" stroke-linecap="round" stroke-linejoin="round"/>
<path d="M1569.98 1165.53C1568.47 1169.61 1568.76 1177.82 1570.44 1182.21C1573.36 1189.85 1575.78 1201.16 1565.58 1201.16H1509.43C1509.43 1201.16 1508.14 1193.72 1523.02 1191.61C1537.39 1189.58 1555.97 1181.19 1555.84 1166.84C1552.83 1145.95 1549.18 1111.62 1546.31 1082.43C1557.13 1083.69 1572.22 1084.89 1592.54 1085.44C1586.91 1114.97 1577.39 1145.84 1570.02 1165.47C1570 1165.49 1569.99 1165.51 1569.98 1165.53Z" fill="#C48270" stroke="#0D0D0D" stroke-width="4" stroke-linecap="round" stroke-linejoin="round"/>
<path d="M1570.44 1182.2C1570.44 1182.2 1578.89 1201.14 1566.6 1201.14H1509.43C1509.43 1201.14 1507.13 1193.98 1521.98 1191.6C1524.07 1191.26 1529.95 1190.13 1529.95 1190.13C1529.95 1190.13 1528.12 1195.43 1541.19 1194.86C1554.25 1194.28 1560.14 1183.13 1570.44 1182.2Z" fill="#FEBD2F" stroke="#0D0D0D" stroke-width="4" stroke-linecap="round" stroke-linejoin="round"/>
<path d="M1724.94 1075.84C1724.94 1075.84 1704.47 996.906 1710.13 918.578C1715.12 849.471 1728.55 796.4 1702.17 721.803L1701.99 721.88C1684.45 672.644 1658.01 645.824 1658.01 645.824C1649.04 611.979 1680.65 546.616 1680.57 520.06C1680.51 502.362 1649.04 491.69 1649.04 491.69L1566.68 501.237L1561.12 503.148C1561.12 503.148 1548.14 536.986 1541.67 552.168C1530.03 579.697 1554.4 598.346 1557.72 600.333C1561.03 602.32 1566.68 645.824 1566.68 645.824C1538.8 724.839 1528.17 794.677 1528.17 794.677C1512.3 883.74 1523.17 1078.47 1523.17 1078.47C1523.17 1078.47 1547.84 1086.18 1622.29 1085.75C1696.73 1085.31 1724.94 1075.84 1724.94 1075.84Z" fill="#F7F3EF"/>
<mask id="mask1_67_879" style="mask-type:luminance" maskUnits="userSpaceOnUse" x="1519" y="491" width="206" height="595">
<path d="M1724.94 1075.84C1724.94 1075.84 1704.47 996.906 1710.13 918.578C1715.12 849.471 1728.55 796.4 1702.17 721.803L1701.99 721.88C1684.45 672.644 1658.01 645.824 1658.01 645.824C1649.04 611.979 1680.65 546.616 1680.57 520.06C1680.51 502.362 1649.04 491.69 1649.04 491.69L1566.68 501.237L1561.12 503.148C1561.12 503.148 1548.14 536.986 1541.67 552.168C1530.03 579.697 1554.4 598.346 1557.72 600.333C1561.03 602.32 1566.68 645.824 1566.68 645.824C1538.8 724.839 1528.17 794.677 1528.17 794.677C1512.3 883.74 1523.17 1078.47 1523.17 1078.47C1523.17 1078.47 1547.84 1086.18 1622.29 1085.75C1696.73 1085.31 1724.94 1075.84 1724.94 1075.84Z" fill="white"/>
</mask>
<g mask="url(#mask1_67_879)">
<path d="M1533.48 531.511H1702.15" stroke="#0D0D0D" stroke-width="4" stroke-linecap="round" stroke-linejoin="round"/>
<path d="M1533.48 563.389H1702.15" stroke="#0D0D0D" stroke-width="4" stroke-linecap="round" stroke-linejoin="round"/>
<path d="M1533.48 595.268H1702.15" stroke="#0D0D0D" stroke-width="4" stroke-linecap="round" stroke-linejoin="round"/>
<path d="M1533.48 627.14H1702.15" stroke="#0D0D0D" stroke-width="4" stroke-linecap="round" stroke-linejoin="round"/>
<path d="M1533.48 659.018H1702.15" stroke="#0D0D0D" stroke-width="4" stroke-linecap="round" stroke-linejoin="round"/>
<path d="M1533.48 690.897H1702.15" stroke="#0D0D0D" stroke-width="4" stroke-linecap="round" stroke-linejoin="round"/>
<path d="M1533.48 722.769H1702.15" stroke="#0D0D0D" stroke-width="4" stroke-linecap="round" stroke-linejoin="round"/>
<path d="M1533.48 754.648H1720.46" stroke="#0D0D0D" stroke-width="4" stroke-linecap="round" stroke-linejoin="round"/>
<path d="M1518 786.526H1720.47" stroke="#0D0D0D" stroke-width="4" stroke-linecap="round" stroke-linejoin="round"/>
<path d="M1509.74 818.398H1759.74" stroke="#0D0D0D" stroke-width="4" stroke-linecap="round" stroke-linejoin="round"/>
<path d="M1509.74 850.277H1759.74" stroke="#0D0D0D" stroke-width="4" stroke-linecap="round" stroke-linejoin="round"/>
<path d="M1509.74 882.156H1759.74" stroke="#0D0D0D" stroke-width="4" stroke-linecap="round" stroke-linejoin="round"/>
<path d="M1509.74 914.027H1759.74" stroke="#0D0D0D" stroke-width="4" stroke-linecap="round" stroke-linejoin="round"/>
<path d="M1509.74 945.906H1759.74" stroke="#0D0D0D" stroke-width="4" stroke-linecap="round" stroke-linejoin="round"/>
<path d="M1509.74 977.785H1759.74" stroke="#0D0D0D" stroke-width="4" stroke-linecap="round" stroke-linejoin="round"/>
<path d="M1509.74 1009.66H1759.74" stroke="#0D0D0D" stroke-width="4" stroke-linecap="round" stroke-linejoin="round"/>
<path d="M1509.74 1041.54H1786.89" stroke="#0D0D0D" stroke-width="4" stroke-linecap="round" stroke-linejoin="round"/>
<path d="M1486.79 1073.41H1786.89" stroke="#0D0D0D" stroke-width="4" stroke-linecap="round" stroke-linejoin="round"/>
<path d="M1571.82 491.697V1097.68" stroke="#0D0D0D" stroke-width="4" stroke-linecap="round" stroke-linejoin="round"/>
<path d="M1600.61 491.697V1097.68" stroke="#0D0D0D" stroke-width="4" stroke-linecap="round" stroke-linejoin="round"/>
<path d="M1629.4 491.697V1097.68" stroke="#0D0D0D" stroke-width="4" stroke-linecap="round" stroke-linejoin="round"/>
<path d="M1658.19 491.697V1097.68" stroke="#0D0D0D" stroke-width="4" stroke-linecap="round" stroke-linejoin="round"/>
<path d="M1686.99 491.697V1097.68" stroke="#0D0D0D" stroke-width="4" stroke-linecap="round" stroke-linejoin="round"/>
<path d="M1543.03 491.697V1097.68" stroke="#0D0D0D" stroke-width="4" stroke-linecap="round" stroke-linejoin="round"/>
</g>
<path d="M1724.94 1075.84C1724.94 1075.84 1704.47 996.906 1710.13 918.578C1715.12 849.471 1728.55 796.4 1702.17 721.803L1701.99 721.88C1684.45 672.644 1658.01 645.824 1658.01 645.824C1649.04 611.979 1680.65 546.616 1680.57 520.06C1680.51 502.362 1649.04 491.69 1649.04 491.69L1566.68 501.237L1561.12 503.148C1561.12 503.148 1548.14 536.986 1541.67 552.168C1530.03 579.697 1554.4 598.346 1557.72 600.333C1561.03 602.32 1566.68 645.824 1566.68 645.824C1538.8 724.839 1528.17 794.677 1528.17 794.677C1512.3 883.74 1523.17 1078.47 1523.17 1078.47C1523.17 1078.47 1547.84 1086.18 1622.29 1085.75C1696.73 1085.31 1724.94 1075.84 1724.94 1075.84Z" stroke="#0D0D0D" stroke-width="4" stroke-linecap="round" stroke-linejoin="round"/>
<path d="M1598.76 782.406C1571.51 782.406 1557.07 776.764 1549.7 769.607C1557.45 773.901 1570.25 776.986 1591.01 777.41C1652.44 778.661 1658.8 682.455 1659.34 654.231C1660.59 675.861 1663.43 782.406 1598.76 782.406Z" fill="#0D0D0D"/>
<path d="M1659.36 646.539C1659.36 646.539 1662.99 778.876 1591.01 777.41C1525.18 776.069 1539.37 747.901 1540.67 739.605C1545.32 709.727 1568.03 646.539 1568.03 646.539C1568.03 646.539 1594.12 655.843 1659.36 646.539Z" fill="#FEBD2F" stroke="#0D0D0D" stroke-width="4" stroke-linecap="round" stroke-linejoin="round"/>
<path d="M1714.91 622.436C1709.99 657.796 1631.19 732.941 1629.17 734.859L1629.24 735.06C1629.24 735.06 1623.13 747.088 1617.09 747.088C1611.04 747.088 1605.37 743.808 1602.19 747.192C1599 750.576 1595.7 756.079 1593.27 756.565C1590.33 757.195 1587.26 756.795 1584.59 755.433C1584.59 755.433 1586.67 750.361 1588.83 745.476C1586.89 747.275 1584.26 751.271 1582.79 752.841C1580.57 755.21 1578.62 753.056 1578.62 753.056C1578.62 753.056 1582.87 744.948 1584.51 742.801C1586.15 740.654 1591.09 737.388 1593.79 736.367C1596.79 734.762 1612.7 726.208 1622.47 723.617C1634.63 699.061 1664.02 641.516 1680.83 623.679C1680.83 623.679 1652.79 553.245 1651.46 533.352C1650.14 513.459 1656.81 496.422 1667.56 501.251C1693.26 512.771 1716.79 608.928 1714.91 622.436Z" fill="#C48270" stroke="#0D0D0D" stroke-width="4" stroke-linecap="round" stroke-linejoin="round"/>
<path d="M1588.08 755.447C1588.08 755.447 1593.69 742.683 1595.65 741.356L1603.59 735.929" stroke="#0D0D0D" stroke-width="4" stroke-linecap="round" stroke-linejoin="round"/>
<path d="M1591.49 755.989C1591.49 755.989 1596.9 745.066 1598.86 743.732C1602.33 741.39 1606.8 738.305 1606.8 738.305" stroke="#0D0D0D" stroke-width="4" stroke-linecap="round" stroke-linejoin="round"/>
<path d="M1551.75 399.702C1551.75 399.702 1526.37 393.33 1518.65 411.701C1510.94 430.073 1531.62 434.137 1530.85 444.004C1530.4 449.813 1533.27 465.87 1549.98 453.731C1566.03 442.065 1629.14 497.096 1649.04 491.704C1668.95 486.312 1683.88 454.961 1668.21 443.517C1652.53 432.074 1643.08 447.992 1637.85 443.017C1632.63 438.042 1635.13 429.496 1622.41 427.335C1610.88 425.382 1605.74 436.048 1605.74 436.048C1605.74 436.048 1613.09 400.82 1594.35 390.37C1575.6 379.92 1558.84 385.624 1551.75 399.702Z" fill="#0D0D0D"/>
<path d="M1668.6 438.994C1652.31 428.447 1644.98 443.378 1639.52 438.702C1634.06 434.026 1634.8 426.105 1621.97 424.66C1610.35 423.354 1605.07 436.291 1605.07 436.291" stroke="#0D0D0D" stroke-width="4" stroke-linecap="round" stroke-linejoin="round"/>
<path d="M1598.95 439.112C1598.95 439.112 1609.93 485.228 1649.04 491.732C1649.04 491.732 1591.55 522.109 1566.68 501.272C1566.68 501.272 1585.34 491.294 1574.73 462.889L1598.95 439.112Z" fill="#C48270" stroke="#0D0D0D" stroke-width="4" stroke-linecap="round" stroke-linejoin="round"/>
<path d="M1597.74 440.557C1599 445.116 1601 482.741 1576.21 489.376C1578.48 483.331 1579.14 474.694 1574.72 462.861L1597.74 440.557Z" fill="#0D0D0D"/>
<path d="M1600.45 424.18C1605.19 425.57 1602.53 440.856 1598.36 443.073C1599.64 447.673 1592.75 470.866 1569.98 477.606C1563.5 479.53 1550.08 460.68 1547.45 454.447C1543.61 445.366 1540.1 436.979 1539.45 433.602C1538.4 428.141 1538.14 415.905 1553.75 413.355C1567.44 411.111 1571.86 439.119 1594 429.336C1594.04 429.35 1595.65 422.763 1600.45 424.18Z" fill="#C48270" stroke="#0D0D0D" stroke-width="4" stroke-linecap="round" stroke-linejoin="round"/>
<path d="M1554.12 440.557V452.196L1559.31 454.447" stroke="#0D0D0D" stroke-width="4" stroke-linecap="round" stroke-linejoin="round"/>
<path d="M1562.18 461.854C1562.18 461.854 1568.4 463.16 1571.15 456.031" stroke="#0D0D0D" stroke-width="4" stroke-linecap="round" stroke-linejoin="round"/>
<path d="M1563.91 440.392C1564.9 439.906 1565.18 438.461 1564.54 437.163C1563.9 435.866 1562.58 435.207 1561.6 435.693C1560.61 436.178 1560.33 437.624 1560.97 438.921C1561.61 440.219 1562.93 440.877 1563.91 440.392Z" fill="#0D0D0D"/>
<path d="M1548.99 447.718C1550.03 447.361 1550.49 445.963 1550.02 444.595C1549.55 443.227 1548.33 442.407 1547.29 442.764C1546.25 443.12 1545.79 444.519 1546.26 445.887C1546.73 447.255 1547.96 448.075 1548.99 447.718Z" fill="#0D0D0D"/>
<path d="M1542.4 436.472C1542.75 435.665 1543.36 435.001 1544.14 434.592C1544.92 434.182 1545.81 434.051 1546.68 434.221" stroke="#0D0D0D" stroke-width="4" stroke-linecap="round" stroke-linejoin="round"/>
<path d="M1595.83 440.557C1600.92 440.557 1605.05 436.432 1605.05 431.344C1605.05 426.256 1600.92 422.131 1595.83 422.131C1590.75 422.131 1586.62 426.256 1586.62 431.344C1586.62 436.432 1590.75 440.557 1595.83 440.557Z" fill="#C48270"/>
<path d="M1592.34 436.965C1591.73 434.71 1591.7 432.335 1592.26 430.066C1592.59 428.872 1593.24 427.794 1594.15 426.949C1595.06 426.104 1596.18 425.526 1597.39 425.278" stroke="#0D0D0D" stroke-width="4" stroke-linecap="round" stroke-linejoin="round"/>
<path d="M1597.39 432.449L1592.26 430.066" stroke="#0D0D0D" stroke-width="4" stroke-linecap="round" stroke-linejoin="round"/>
<path d="M1602.69 445.963C1605.05 445.963 1606.97 444.044 1606.97 441.676C1606.97 439.308 1605.05 437.389 1602.69 437.389C1600.32 437.389 1598.4 439.308 1598.4 441.676C1598.4 444.044 1600.32 445.963 1602.69 445.963Z" fill="#F7F3EF" stroke="#0D0D0D" stroke-width="4" stroke-linecap="round" stroke-linejoin="round"/>
<path d="M1556.72 430.218C1556.72 430.218 1557.91 426.008 1563.24 427.342" stroke="#0D0D0D" stroke-width="4" stroke-linecap="round" stroke-linejoin="round"/>
<path d="M620.875 747.515C610.554 730.632 595.432 695.635 588.212 678.628C580.992 661.621 538.48 689.577 538.48 689.577C506.795 705.63 474.233 728.9 458.024 741.187C452.739 745.596 444.788 744.798 440.279 739.408C435.77 734.018 436.4 726.062 441.685 721.655C460.062 704.839 499.999 670.363 536.432 650.877C557.944 639.372 578.876 633.993 594.662 636.089C603.186 637.252 611.106 642.082 618.274 650.222C629.049 662.458 638.234 686.723 649.072 709.669C652.909 717.793 656.896 725.773 661.823 732.404C665.586 737.47 669.567 741.989 675.056 743.902C687.72 748.365 699.353 743.84 710.813 736.9C731.245 724.528 750.899 704.852 770.835 690.302C789.717 676.519 809.086 667.096 829.26 667.618C848.355 667.756 860.631 676.685 869.803 690.57C878.084 703.104 883.006 721.463 889.292 740.06C894.984 756.902 901.641 774.689 920.551 782.068C935.515 788.158 949.022 785.574 961.904 779.774C984.771 769.48 1005.95 750.143 1027.77 735.547C1047.47 722.371 1067.76 712.786 1089.07 711.872C1099.26 711.434 1110.66 716.822 1121.09 729.962C1131.43 742.982 1143.05 767.116 1164.38 781.541C1175.59 789.116 1189.88 793.408 1208.7 790.654C1219.43 789.016 1229.66 796.453 1231.52 807.249C1233.38 818.047 1226.17 828.143 1215.43 829.78C1184.57 834.676 1161.15 827.167 1142.59 814.945C1120.42 800.347 1105.69 778.001 1094.06 761.788C1080.91 743.456 1055.18 767.649 1040.99 778.089C1021.02 792.779 1001.03 809.044 979.873 818.523C956.68 828.916 932.193 831.95 905.364 820.768C891.664 814.863 881.248 806.401 873.267 796.152C856.773 774.967 851.554 745.687 843.929 722.804C840.84 713.537 838.944 704.512 829.345 704.194C810.688 704.036 794.457 718.951 777.517 733.915C756.511 752.472 735.361 772.417 712.923 781.494C696.913 787.97 680.221 789.355 662.54 783.763C645.36 778.247 631.536 764.954 620.875 747.515Z" fill="#FECD62"/>
<path d="M425.765 649.118V739H353.133V655.538C353.133 651.963 356.786 649.104 361.304 649.104L425.765 649.118Z" fill="#0D0D0D"/>
<path d="M469.845 620.952H451.408V631.024L469.845 627.915V620.952Z" fill="#F5F3EF" stroke="#0D0D0D" stroke-width="4" stroke-linecap="round" stroke-linejoin="round"/>
<path d="M451.679 652.285H158.099" stroke="#0D0D0D" stroke-width="4" stroke-linecap="round" stroke-linejoin="round"/>
<path d="M125 602.515H484.227V620.959H125V602.515Z" fill="#F5F3EF" stroke="#0D0D0D" stroke-width="4" stroke-linecap="round" stroke-linejoin="round"/>
<path d="M451.401 620.952H469.845V652.285H451.401V620.952Z" fill="#F5F3EF" stroke="#0D0D0D" stroke-width="4" stroke-linecap="round" stroke-linejoin="round"/>
<path d="M157.542 620.952H139.105V631.024L157.542 627.915V620.952Z" fill="#F5F3EF" stroke="#0D0D0D" stroke-width="4" stroke-linecap="round" stroke-linejoin="round"/>
<path d="M139.105 620.952H157.549V652.285H139.105V620.952Z" fill="#F5F3EF" stroke="#0D0D0D" stroke-width="4" stroke-linecap="round" stroke-linejoin="round"/>
<path d="M361.248 649.118C365.995 649.118 369.827 651.978 369.827 655.552V719.291H437.319V655.538C437.319 651.963 433.48 649.104 428.74 649.104L361.248 649.118Z" fill="#F5F3EF" stroke="#0D0D0D" stroke-width="4" stroke-linecap="round" stroke-linejoin="round"/>
<path d="M381.554 585.51C360.473 564.429 360.473 530.251 381.554 509.17C402.634 488.089 436.813 488.089 457.894 509.17C478.975 530.251 478.975 564.429 457.894 585.51C436.813 606.591 402.634 606.591 381.554 585.51Z" fill="#F5F3EF" stroke="#0D0D0D" stroke-width="4" stroke-linecap="round" stroke-linejoin="round"/>
<path d="M391.44 557.62C385.769 542.004 393.83 524.747 409.446 519.076C425.062 513.404 442.319 521.466 447.99 537.082C453.662 552.698 445.6 569.955 429.984 575.626C414.368 581.298 397.111 573.236 391.44 557.62Z" fill="#F5F3EF" stroke="#0D0D0D" stroke-width="4" stroke-linecap="round" stroke-linejoin="round"/>
<path d="M333.474 566.478H261.607C261.609 567.962 262.199 569.384 263.249 570.434C264.298 571.483 265.721 572.073 267.205 572.075H327.884C329.367 572.073 330.789 571.483 331.837 570.433C332.885 569.384 333.474 567.961 333.474 566.478Z" fill="#F5F3EF" stroke="#0D0D0D" stroke-width="4" stroke-linecap="round" stroke-linejoin="round"/>
<path d="M340.094 578.91H255.023C255.023 580.667 255.722 582.353 256.965 583.596C258.207 584.838 259.893 585.537 261.65 585.537H333.467C335.225 585.537 336.91 584.838 338.153 583.596C339.396 582.353 340.094 580.667 340.094 578.91Z" fill="#F5F3EF" stroke="#0D0D0D" stroke-width="4" stroke-linecap="round" stroke-linejoin="round"/>
<path d="M349.152 593.286H245.923C245.923 595.417 246.77 597.461 248.277 598.968C249.783 600.475 251.827 601.321 253.958 601.321H341.124C343.253 601.317 345.294 600.469 346.799 598.963C348.304 597.457 349.15 595.415 349.152 593.286Z" fill="#F5F3EF" stroke="#0D0D0D" stroke-width="4" stroke-linecap="round" stroke-linejoin="round"/>
<path d="M343.396 560.687H251.684C251.459 560.692 251.242 560.774 251.07 560.921C250.899 561.068 250.784 561.27 250.745 561.492C250.706 561.714 250.746 561.943 250.857 562.139C250.969 562.336 251.145 562.487 251.355 562.567L261.078 566.142H333.996L343.725 562.567C343.936 562.487 344.112 562.336 344.223 562.139C344.335 561.943 344.374 561.714 344.336 561.492C344.297 561.27 344.182 561.068 344.01 560.921C343.839 560.774 343.622 560.692 343.396 560.687Z" fill="#F5F3EF" stroke="#0D0D0D" stroke-width="4" stroke-linecap="round" stroke-linejoin="round"/>
<path d="M334.003 566.113H261.085C261.094 567.616 261.695 569.056 262.757 570.119C263.819 571.183 265.258 571.785 266.761 571.797H328.334C329.08 571.797 329.818 571.65 330.507 571.364C331.197 571.078 331.823 570.659 332.35 570.132C332.877 569.604 333.295 568.977 333.58 568.288C333.865 567.598 334.011 566.859 334.01 566.113H334.003Z" fill="#F5F3EF" stroke="#0D0D0D" stroke-width="4" stroke-linecap="round" stroke-linejoin="round"/>
<path d="M351.847 571.854H243.242C242.973 571.855 242.712 571.951 242.506 572.125C242.3 572.299 242.162 572.539 242.115 572.805C242.068 573.07 242.116 573.344 242.25 573.578C242.384 573.811 242.596 573.991 242.849 574.084L254.366 578.288H340.723L352.24 574.084C352.493 573.991 352.705 573.811 352.839 573.578C352.973 573.344 353.021 573.07 352.974 572.805C352.927 572.539 352.789 572.299 352.583 572.125C352.377 571.951 352.116 571.855 351.847 571.854Z" fill="#F5F3EF" stroke="#0D0D0D" stroke-width="4" stroke-linecap="round" stroke-linejoin="round"/>
<path d="M340.723 578.288H254.366C254.366 580.07 255.074 581.779 256.334 583.039C257.594 584.3 259.303 585.008 261.086 585.008H334.004C334.887 585.008 335.761 584.835 336.577 584.498C337.393 584.161 338.135 583.666 338.76 583.042C339.385 582.418 339.88 581.677 340.218 580.861C340.556 580.045 340.73 579.171 340.73 578.288H340.723Z" fill="#F5F3EF" stroke="#0D0D0D" stroke-width="4" stroke-linecap="round" stroke-linejoin="round"/>
<path d="M363.407 585.072H231.676C231.347 585.067 231.027 585.18 230.773 585.39C230.52 585.599 230.349 585.892 230.291 586.216C230.234 586.54 230.293 586.874 230.459 587.158C230.625 587.442 230.886 587.658 231.197 587.767L245.165 592.871H349.917L363.886 587.767C364.196 587.658 364.458 587.442 364.623 587.158C364.789 586.874 364.849 586.54 364.791 586.216C364.734 585.892 364.563 585.599 364.309 585.39C364.056 585.18 363.736 585.067 363.407 585.072Z" fill="#F5F3EF" stroke="#0D0D0D" stroke-width="4" stroke-linecap="round" stroke-linejoin="round"/>
<path d="M349.916 592.871H245.164C245.164 593.942 245.375 595.002 245.785 595.992C246.195 596.981 246.796 597.88 247.554 598.636C248.311 599.393 249.21 599.993 250.2 600.403C251.19 600.812 252.25 601.022 253.321 601.021H341.759C342.83 601.022 343.89 600.812 344.88 600.403C345.869 599.993 346.769 599.393 347.526 598.636C348.284 597.88 348.885 596.981 349.295 595.992C349.705 595.002 349.916 593.942 349.916 592.871Z" fill="#F5F3EF" stroke="#0D0D0D" stroke-width="4" stroke-linecap="round" stroke-linejoin="round"/>
<path d="M313.194 656.803L289.932 680.137C286.543 683.532 286.722 689.209 290.339 692.804L299.182 701.626C302.792 705.2 308.476 705.393 311.85 701.998L335.119 678.664L313.194 656.803Z" fill="#F5F3EF" stroke="#0D0D0D" stroke-width="4" stroke-linecap="round" stroke-linejoin="round"/>
<path d="M308.504 661.507C304.393 657.404 297.938 657.218 294.078 661.085L289.381 665.796C285.528 669.664 285.735 676.119 289.846 680.223" stroke="#0D0D0D" stroke-width="4" stroke-linecap="round" stroke-linejoin="round"/>
<path d="M298.668 652.285H301.42V661.693H298.668V652.285Z" fill="#F5F3EF" stroke="#0D0D0D" stroke-width="4" stroke-linecap="round" stroke-linejoin="round"/>
<path d="M250.312 656.803L227.043 680.137C223.662 683.532 223.84 689.209 227.451 692.804L236.301 701.626C239.875 705.2 245.594 705.393 248.968 701.998L272.238 678.664L250.312 656.803Z" fill="#F5F3EF" stroke="#0D0D0D" stroke-width="4" stroke-linecap="round" stroke-linejoin="round"/>
<path d="M250.312 656.803L227.043 680.137C223.662 683.532 223.84 689.209 227.451 692.804L236.301 701.626C239.875 705.2 245.594 705.393 248.968 701.998L272.238 678.664L250.312 656.803Z" fill="#F5F3EF" stroke="#0D0D0D" stroke-width="4" stroke-linecap="round" stroke-linejoin="round"/>
<path d="M245.624 661.507C241.513 657.404 235.05 657.218 231.197 661.085L226.5 665.796C222.647 669.664 222.847 676.119 226.965 680.223" stroke="#0D0D0D" stroke-width="4" stroke-linecap="round" stroke-linejoin="round"/>
<path d="M261.12 677.113C260.801 677.433 260.584 677.841 260.496 678.284C260.408 678.728 260.453 679.188 260.627 679.605C260.8 680.023 261.093 680.38 261.469 680.631C261.845 680.882 262.287 681.016 262.74 681.016C263.192 681.016 263.634 680.882 264.01 680.631C264.386 680.38 264.679 680.023 264.853 679.605C265.026 679.188 265.072 678.728 264.984 678.284C264.896 677.841 264.678 677.433 264.359 677.113C264.146 676.9 263.894 676.731 263.616 676.616C263.338 676.5 263.04 676.441 262.74 676.441C262.439 676.441 262.141 676.5 261.863 676.616C261.585 676.731 261.333 676.9 261.12 677.113Z" fill="#F5F3EF" stroke="#0D0D0D" stroke-width="4" stroke-linecap="round" stroke-linejoin="round"/>
<path d="M248.726 664.717C248.405 665.038 248.186 665.447 248.098 665.892C248.009 666.337 248.055 666.798 248.228 667.218C248.402 667.637 248.696 667.995 249.073 668.247C249.451 668.499 249.894 668.634 250.348 668.634C250.802 668.634 251.246 668.499 251.623 668.247C252.001 667.995 252.295 667.637 252.468 667.218C252.642 666.798 252.688 666.337 252.599 665.892C252.51 665.447 252.292 665.038 251.971 664.717C251.759 664.503 251.506 664.333 251.227 664.217C250.949 664.101 250.65 664.042 250.348 664.042C250.047 664.042 249.748 664.101 249.469 664.217C249.191 664.333 248.938 664.503 248.726 664.717Z" fill="#F5F3EF" stroke="#0D0D0D" stroke-width="4" stroke-linecap="round" stroke-linejoin="round"/>
<path d="M254.925 670.915C254.605 671.235 254.388 671.643 254.3 672.086C254.212 672.53 254.258 672.99 254.431 673.407C254.604 673.825 254.897 674.182 255.273 674.433C255.65 674.684 256.092 674.818 256.544 674.818C256.996 674.818 257.438 674.684 257.814 674.433C258.19 674.182 258.484 673.825 258.657 673.407C258.83 672.99 258.876 672.53 258.788 672.086C258.7 671.643 258.483 671.235 258.163 670.915C257.951 670.702 257.698 670.533 257.42 670.418C257.143 670.302 256.845 670.243 256.544 670.243C256.243 670.243 255.945 670.302 255.667 670.418C255.39 670.533 255.137 670.702 254.925 670.915Z" fill="#F5F3EF" stroke="#0D0D0D" stroke-width="4" stroke-linecap="round" stroke-linejoin="round"/>
<path d="M259.713 685.648C259.393 685.969 259.176 686.376 259.088 686.82C259 687.263 259.046 687.723 259.219 688.141C259.392 688.559 259.685 688.916 260.062 689.167C260.438 689.418 260.88 689.552 261.332 689.552C261.784 689.552 262.226 689.418 262.602 689.167C262.979 688.916 263.272 688.559 263.445 688.141C263.618 687.723 263.664 687.263 263.576 686.82C263.488 686.376 263.271 685.969 262.951 685.648C262.739 685.436 262.486 685.267 262.209 685.151C261.931 685.036 261.633 684.977 261.332 684.977C261.031 684.977 260.733 685.036 260.456 685.151C260.178 685.267 259.925 685.436 259.713 685.648Z" fill="#F5F3EF" stroke="#0D0D0D" stroke-width="4" stroke-linecap="round" stroke-linejoin="round"/>
<path d="M246.696 672.638C246.377 672.958 246.159 673.365 246.071 673.809C245.984 674.253 246.029 674.712 246.202 675.13C246.376 675.548 246.669 675.905 247.045 676.156C247.421 676.407 247.863 676.541 248.315 676.541C248.768 676.541 249.21 676.407 249.586 676.156C249.962 675.905 250.255 675.548 250.428 675.13C250.602 674.712 250.647 674.253 250.559 673.809C250.472 673.365 250.254 672.958 249.935 672.638C249.722 672.425 249.47 672.256 249.192 672.141C248.914 672.025 248.616 671.966 248.315 671.966C248.015 671.966 247.717 672.025 247.439 672.141C247.161 672.256 246.909 672.425 246.696 672.638Z" fill="#F5F3EF" stroke="#0D0D0D" stroke-width="4" stroke-linecap="round" stroke-linejoin="round"/>
<path d="M240.189 666.125C239.87 666.445 239.652 666.853 239.565 667.296C239.477 667.74 239.522 668.2 239.695 668.618C239.869 669.035 240.162 669.392 240.538 669.643C240.914 669.895 241.356 670.029 241.809 670.029C242.261 670.029 242.703 669.895 243.079 669.643C243.455 669.392 243.748 669.035 243.922 668.618C244.095 668.2 244.14 667.74 244.053 667.296C243.965 666.853 243.747 666.445 243.428 666.125C243.216 665.911 242.964 665.742 242.686 665.626C242.408 665.51 242.11 665.45 241.809 665.45C241.507 665.45 241.209 665.51 240.932 665.626C240.654 665.742 240.401 665.911 240.189 666.125Z" fill="#F5F3EF" stroke="#0D0D0D" stroke-width="4" stroke-linecap="round" stroke-linejoin="round"/>
<path d="M253.201 679.143C252.881 679.463 252.664 679.871 252.576 680.314C252.488 680.758 252.534 681.218 252.707 681.636C252.88 682.053 253.173 682.41 253.549 682.661C253.925 682.913 254.368 683.047 254.82 683.047C255.272 683.047 255.714 682.913 256.09 682.661C256.466 682.41 256.76 682.053 256.933 681.636C257.106 681.218 257.152 680.758 257.064 680.314C256.976 679.871 256.759 679.463 256.439 679.143C256.227 678.93 255.974 678.761 255.696 678.646C255.418 678.531 255.121 678.471 254.82 678.471C254.519 678.471 254.221 678.531 253.943 678.646C253.665 678.761 253.413 678.93 253.201 679.143Z" fill="#F5F3EF" stroke="#0D0D0D" stroke-width="4" stroke-linecap="round" stroke-linejoin="round"/>
<path d="M251.169 687.057C250.85 687.377 250.632 687.785 250.545 688.228C250.457 688.672 250.502 689.132 250.675 689.549C250.849 689.967 251.142 690.324 251.518 690.575C251.894 690.826 252.336 690.96 252.789 690.96C253.241 690.96 253.683 690.826 254.059 690.575C254.435 690.324 254.728 689.967 254.902 689.549C255.075 689.132 255.12 688.672 255.033 688.228C254.945 687.785 254.727 687.377 254.408 687.057C254.195 686.844 253.943 686.675 253.665 686.56C253.387 686.444 253.089 686.385 252.789 686.385C252.488 686.385 252.19 686.444 251.912 686.56C251.634 686.675 251.382 686.844 251.169 687.057Z" fill="#F5F3EF" stroke="#0D0D0D" stroke-width="4" stroke-linecap="round" stroke-linejoin="round"/>
<path d="M238.781 674.668C238.462 674.988 238.244 675.396 238.156 675.839C238.068 676.283 238.114 676.743 238.287 677.16C238.461 677.578 238.754 677.935 239.13 678.186C239.506 678.437 239.948 678.572 240.4 678.572C240.853 678.572 241.295 678.437 241.671 678.186C242.047 677.935 242.34 677.578 242.513 677.16C242.687 676.743 242.732 676.283 242.644 675.839C242.556 675.396 242.339 674.988 242.02 674.668C241.807 674.455 241.555 674.286 241.277 674.171C240.999 674.056 240.701 673.996 240.4 673.996C240.1 673.996 239.802 674.056 239.524 674.171C239.246 674.286 238.994 674.455 238.781 674.668Z" fill="#F5F3EF" stroke="#0D0D0D" stroke-width="4" stroke-linecap="round" stroke-linejoin="round"/>
<path d="M244.971 680.866C244.652 681.186 244.434 681.594 244.346 682.037C244.258 682.481 244.304 682.941 244.477 683.358C244.651 683.776 244.944 684.133 245.32 684.384C245.696 684.635 246.138 684.77 246.59 684.77C247.043 684.77 247.485 684.635 247.861 684.384C248.237 684.133 248.53 683.776 248.703 683.358C248.877 682.941 248.922 682.481 248.834 682.037C248.746 681.594 248.529 681.186 248.21 680.866C247.997 680.653 247.745 680.484 247.467 680.369C247.189 680.254 246.891 680.194 246.59 680.194C246.29 680.194 245.992 680.254 245.714 680.369C245.436 680.484 245.184 680.653 244.971 680.866Z" fill="#F5F3EF" stroke="#0D0D0D" stroke-width="4" stroke-linecap="round" stroke-linejoin="round"/>
<path d="M249.783 695.6C249.464 695.92 249.246 696.327 249.158 696.771C249.07 697.215 249.116 697.674 249.289 698.092C249.463 698.51 249.756 698.867 250.132 699.118C250.508 699.369 250.95 699.503 251.402 699.503C251.855 699.503 252.297 699.369 252.673 699.118C253.049 698.867 253.342 698.51 253.515 698.092C253.689 697.674 253.734 697.215 253.646 696.771C253.558 696.327 253.341 695.92 253.022 695.6C252.809 695.387 252.557 695.218 252.279 695.103C252.001 694.987 251.703 694.928 251.402 694.928C251.102 694.928 250.804 694.987 250.526 695.103C250.248 695.218 249.996 695.387 249.783 695.6Z" fill="#F5F3EF" stroke="#0D0D0D" stroke-width="4" stroke-linecap="round" stroke-linejoin="round"/>
<path d="M238.366 686.492C237.102 686.492 236.078 685.468 236.078 684.204C236.078 682.941 237.102 681.917 238.366 681.917C239.629 681.917 240.653 682.941 240.653 684.204C240.653 685.468 239.629 686.492 238.366 686.492Z" fill="#F5F3EF" stroke="#0D0D0D" stroke-width="4" stroke-linecap="round" stroke-linejoin="round"/>
<path d="M231.854 679.987C230.591 679.987 229.566 678.962 229.566 677.699C229.566 676.436 230.591 675.411 231.854 675.411C233.117 675.411 234.142 676.436 234.142 677.699C234.142 678.962 233.117 679.987 231.854 679.987Z" fill="#F5F3EF" stroke="#0D0D0D" stroke-width="4" stroke-linecap="round" stroke-linejoin="round"/>
<path d="M243.257 689.094C242.937 689.414 242.72 689.822 242.632 690.266C242.544 690.709 242.59 691.169 242.763 691.587C242.936 692.004 243.229 692.361 243.605 692.613C243.982 692.864 244.424 692.998 244.876 692.998C245.328 692.998 245.77 692.864 246.146 692.613C246.522 692.361 246.816 692.004 246.989 691.587C247.162 691.169 247.208 690.709 247.12 690.266C247.032 689.822 246.815 689.414 246.495 689.094C246.283 688.88 246.031 688.711 245.753 688.595C245.475 688.479 245.177 688.42 244.876 688.42C244.575 688.42 244.277 688.479 243.999 688.595C243.721 688.711 243.469 688.88 243.257 689.094Z" fill="#F5F3EF" stroke="#0D0D0D" stroke-width="4" stroke-linecap="round" stroke-linejoin="round"/>
<path d="M241.206 697.008C240.886 697.328 240.669 697.736 240.581 698.179C240.493 698.623 240.538 699.083 240.712 699.5C240.885 699.918 241.178 700.275 241.554 700.526C241.93 700.777 242.372 700.912 242.825 700.912C243.277 700.912 243.719 700.777 244.095 700.526C244.471 700.275 244.764 699.918 244.938 699.5C245.111 699.083 245.157 698.623 245.069 698.179C244.981 697.736 244.763 697.328 244.444 697.008C244.231 696.795 243.979 696.626 243.701 696.511C243.423 696.396 243.126 696.336 242.825 696.336C242.524 696.336 242.226 696.396 241.948 696.511C241.67 696.626 241.418 696.795 241.206 697.008Z" fill="#F5F3EF" stroke="#0D0D0D" stroke-width="4" stroke-linecap="round" stroke-linejoin="round"/>
<path d="M228.829 684.619C228.51 684.939 228.293 685.347 228.205 685.79C228.117 686.234 228.162 686.694 228.336 687.112C228.509 687.529 228.802 687.886 229.178 688.137C229.554 688.389 229.996 688.523 230.449 688.523C230.901 688.523 231.343 688.389 231.719 688.137C232.095 687.886 232.388 687.529 232.562 687.112C232.735 686.694 232.781 686.234 232.693 685.79C232.605 685.347 232.387 684.939 232.068 684.619C231.855 684.406 231.603 684.237 231.325 684.122C231.047 684.007 230.749 683.947 230.449 683.947C230.148 683.947 229.85 684.007 229.572 684.122C229.294 684.237 229.042 684.406 228.829 684.619Z" fill="#F5F3EF" stroke="#0D0D0D" stroke-width="4" stroke-linecap="round" stroke-linejoin="round"/>
<path d="M235.021 690.817C234.701 691.138 234.482 691.547 234.394 691.992C234.305 692.437 234.35 692.899 234.524 693.318C234.698 693.737 234.992 694.095 235.369 694.348C235.747 694.6 236.19 694.734 236.644 694.734C237.098 694.734 237.542 694.6 237.919 694.348C238.296 694.095 238.591 693.737 238.764 693.318C238.938 692.899 238.983 692.437 238.895 691.992C238.806 691.547 238.588 691.138 238.267 690.817C238.054 690.603 237.802 690.433 237.523 690.317C237.245 690.202 236.946 690.142 236.644 690.142C236.343 690.142 236.044 690.202 235.765 690.317C235.487 690.433 235.234 690.603 235.021 690.817Z" fill="#F5F3EF" stroke="#0D0D0D" stroke-width="4" stroke-linecap="round" stroke-linejoin="round"/>
<path d="M236.558 652.285H239.31V661.693H236.558V652.285Z" fill="#F5F3EF" stroke="#0D0D0D" stroke-width="4" stroke-linecap="round" stroke-linejoin="round"/>
<path d="M187.433 656.803L164.163 680.137C160.782 683.532 160.961 689.209 164.571 692.804L173.421 701.626C176.995 705.2 182.714 705.393 186.089 701.998L209.358 678.664L187.433 656.803Z" fill="#F5F3EF" stroke="#0D0D0D" stroke-width="4" stroke-linecap="round" stroke-linejoin="round"/>
<path d="M182.743 661.507C178.632 657.404 172.17 657.218 168.316 661.085L163.62 665.796C159.759 669.664 159.967 676.119 164.077 680.223" stroke="#0D0D0D" stroke-width="4" stroke-linecap="round" stroke-linejoin="round"/>
<path d="M173.899 652.285H176.651V661.693H173.899V652.285Z" fill="#F5F3EF" stroke="#0D0D0D" stroke-width="4" stroke-linecap="round" stroke-linejoin="round"/>
<path d="M155.74 504.655H162.288C163.457 504.665 164.617 504.445 165.701 504.006C166.785 503.567 167.772 502.919 168.605 502.098C169.437 501.277 170.1 500.3 170.554 499.222C171.009 498.145 171.246 496.988 171.253 495.819V493.917C171.254 492.772 171.028 491.637 170.588 490.579C170.386 490.077 170.132 489.598 169.83 489.149C169.393 488.09 169.167 486.956 169.165 485.811V484.56C169.201 482.212 170.163 479.974 171.843 478.334C173.522 476.693 175.782 475.783 178.13 475.802H179.402C180.569 475.792 181.727 476.012 182.809 476.449C183.891 476.886 184.876 477.532 185.709 478.349C186.541 479.167 187.204 480.141 187.66 481.215C188.116 482.289 188.357 483.443 188.367 484.61V485.861C188.368 487.007 188.142 488.141 187.702 489.199C187.403 489.65 187.149 490.129 186.944 490.629C186.504 491.687 186.278 492.822 186.279 493.968V495.819C186.279 500.68 190.29 506.056 195.244 506.056H201.799C207.99 506.056 213.009 509.552 213.009 515.643V590.82C212.98 593.765 211.784 596.579 209.682 598.644C207.58 600.708 204.745 601.853 201.799 601.829H155.74C152.794 601.853 149.959 600.708 147.857 598.644C145.755 596.579 144.559 593.765 144.53 590.82V515.671C144.543 514.212 144.842 512.769 145.412 511.425C145.982 510.082 146.811 508.864 147.852 507.84C148.893 506.817 150.126 506.009 151.479 505.463C152.832 504.916 154.28 504.642 155.74 504.655ZM178.773 483.173C178.284 483.181 177.809 483.334 177.407 483.612C177.005 483.889 176.693 484.28 176.512 484.734C176.331 485.187 176.288 485.685 176.388 486.163C176.489 486.642 176.728 487.08 177.077 487.422C177.426 487.765 177.868 487.997 178.348 488.089C178.828 488.181 179.324 488.13 179.775 487.941C180.226 487.752 180.611 487.434 180.881 487.027C181.152 486.62 181.297 486.142 181.297 485.653C181.294 485.325 181.226 485 181.098 484.698C180.97 484.395 180.783 484.121 180.549 483.89C180.314 483.66 180.037 483.478 179.732 483.355C179.428 483.232 179.102 483.17 178.773 483.173Z" fill="#F5F3EF" stroke="#0D0D0D" stroke-width="4" stroke-linecap="round" stroke-linejoin="round"/>
<path d="M159.072 503.504H165.621C167.998 503.504 170.278 502.56 171.96 500.878C173.641 499.197 174.585 496.917 174.585 494.539V492.602C174.583 491.438 174.357 490.285 173.921 489.206C173.714 488.707 173.46 488.228 173.163 487.777C172.722 486.696 172.497 485.541 172.498 484.374V483.109C172.497 481.931 172.728 480.765 173.178 479.677C173.629 478.589 174.289 477.6 175.121 476.768C175.954 475.935 176.943 475.275 178.031 474.824C179.119 474.374 180.285 474.143 181.463 474.144H182.728C183.905 474.143 185.071 474.374 186.16 474.824C187.248 475.275 188.236 475.935 189.069 476.768C189.901 477.6 190.562 478.589 191.012 479.677C191.462 480.765 191.693 481.931 191.692 483.109V484.381C191.694 485.548 191.468 486.703 191.028 487.784C190.743 488.236 190.503 488.715 190.313 489.214C189.87 490.291 189.642 491.444 189.641 492.609V494.547C189.643 496.924 190.588 499.203 192.268 500.883C193.949 502.564 196.228 503.509 198.605 503.511H205.161C206.633 503.51 208.091 503.8 209.452 504.363C210.812 504.926 212.048 505.751 213.089 506.792C214.13 507.833 214.956 509.069 215.519 510.43C216.082 511.79 216.371 513.248 216.37 514.721V591.213C216.37 592.685 216.08 594.142 215.517 595.502C214.954 596.862 214.128 598.098 213.087 599.139C212.046 600.18 210.81 601.006 209.45 601.569C208.09 602.132 206.633 602.422 205.161 602.422H159.108C157.636 602.423 156.177 602.134 154.816 601.571C153.456 601.008 152.219 600.182 151.177 599.141C150.136 598.1 149.309 596.864 148.746 595.504C148.182 594.144 147.892 592.685 147.892 591.213V514.721C147.89 511.751 149.066 508.903 151.162 506.8C153.258 504.697 156.103 503.512 159.072 503.504ZM182.099 486.69C182.6 486.69 183.089 486.541 183.505 486.263C183.922 485.985 184.246 485.589 184.437 485.126C184.629 484.663 184.678 484.154 184.58 483.663C184.482 483.172 184.24 482.721 183.886 482.367C183.531 482.014 183.079 481.773 182.588 481.676C182.097 481.58 181.588 481.631 181.125 481.823C180.663 482.016 180.268 482.342 179.991 482.759C179.714 483.176 179.567 483.666 179.568 484.167C179.568 484.499 179.634 484.827 179.761 485.134C179.888 485.441 180.075 485.719 180.31 485.953C180.545 486.188 180.824 486.374 181.131 486.5C181.438 486.626 181.767 486.691 182.099 486.69Z" fill="#F5F3EF" stroke="#0D0D0D" stroke-width="4" stroke-linecap="round" stroke-linejoin="round"/>
</g>
</svg>
